<svg xmlns="http://www.w3.org/2000/svg" data-name="Layer 55" viewBox="0 0 100 125" x="0px" y="0px"><path d="M50,35.79a8.68,8.68,0,1,0,8.68,8.67A8.68,8.68,0,0,0,50,35.79Zm0,15.35a6.68,6.68,0,1,1,6.68-6.68A6.69,6.69,0,0,1,50,51.14Z"/><path d="M96.93,49.6,92.05,36.67a1,1,0,0,0-.94-.65H84.65a1,1,0,0,0-.94.65L79.07,49H63.55V25a1.13,1.13,0,0,0-.06-.32l-7.55-20A1,1,0,0,0,55,4H45a1,1,0,0,0-.94.65l-7.55,20a1.13,1.13,0,0,0-.06.32V49H21.69L17.05,36.67a1,1,0,0,0-.94-.65H9.65a1,1,0,0,0-.94.65L3.83,49.6a.87.87,0,0,0-.06.32s0,0,0,0h0V95.77a1,1,0,0,0,1,1H96a1,1,0,0,0,1-1V50h0s0,0,0,0A.87.87,0,0,0,96.93,49.6ZM10.34,38h5.08L19.55,49H17.14l-3.39-6A1,1,0,0,0,12,43L8.62,49H6.21Zm5.43,56.75H10v-9a2.89,2.89,0,0,1,5.78,0ZM20,60.24V94.77H17.77v-9a4.89,4.89,0,0,0-9.78,0v9H5.76V51H9.2a1,1,0,0,0,.87-.5l2.81-5,2.81,5a1,1,0,0,0,.87.5H20ZM32.11,94.77H26.33v-9a2.89,2.89,0,0,1,5.78,0Zm4.34,0H34.11v-9a4.89,4.89,0,0,0-9.78,0v9H22V61.24H36.45Zm0-35.53H22V51H36.45ZM45.69,6h8.62l6.8,18H53.67L51,12.29a1,1,0,0,0-1.94,0L46.33,24H38.89ZM38.45,26h7.42l-.51,2.22h-2.9a1,1,0,0,0-1,1V34h-3Zm17,68.77H44.59V79.26a5.43,5.43,0,1,1,10.86,0Zm6.1,0h-4.1V79.26a7.43,7.43,0,1,0-14.86,0V94.77H38.45V36h4a1,1,0,0,0,1-1V30.22h2.7a1,1,0,0,0,1-.78L50,17l2.86,12.46a1,1,0,0,0,1,.78h2.7V35a1,1,0,0,0,1,1h4Zm0-60.77h-3V29.22a1,1,0,0,0-1-1h-2.9L54.13,26h7.42Zm12.5,60.77H68.27v-9a2.89,2.89,0,0,1,5.78,0Zm4.71,0H76.05v-9a4.89,4.89,0,0,0-9.78,0v9H63.55V61.24H78.76Zm0-35.53H63.55V51H78.76ZM85.34,38h5.08L94.55,49H92.14l-3.39-6A1,1,0,0,0,87,43l-3.39,6H81.21Zm5.43,56.75H85v-9a2.89,2.89,0,0,1,5.78,0ZM95,94.71v.06H92.77v-9a4.89,4.89,0,0,0-9.78,0v9H80.76V51H84.2a1,1,0,0,0,.87-.5l2.81-5,2.81,5a1,1,0,0,0,.87.5H95Z"/><path d="M16.77,67.88H9a1,1,0,0,0-1,1v7.78a1,1,0,0,0,1,1h7.78a1,1,0,0,0,1-1V68.88A1,1,0,0,0,16.77,67.88Zm-1,7.78H10V69.88h5.78Z"/><path d="M8,55.12V62.9a1,1,0,0,0,1,1h7.78a1,1,0,0,0,1-1V55.12a1,1,0,0,0-1-1H9A1,1,0,0,0,8,55.12Zm2,1h5.78V61.9H10Z"/><path d="M92.11,67H84.33a1,1,0,0,0-1,1v7.78a1,1,0,0,0,1,1h7.78a1,1,0,0,0,1-1V68A1,1,0,0,0,92.11,67Zm-1,7.78H85.33V69h5.78Z"/><path d="M83.33,54.23V62a1,1,0,0,0,1,1h7.78a1,1,0,0,0,1-1V54.23a1,1,0,0,0-1-1H84.33A1,1,0,0,0,83.33,54.23Zm2,1h5.78V61H85.33Z"/></svg>