<?xml version="1.0" encoding="UTF-8"?>
<svg version="1.1" xmlns="http://www.w3.org/2000/svg" width="1254" height="1254">
<path d="M0 0 C413.82 0 827.64 0 1254 0 C1254 413.82 1254 827.64 1254 1254 C840.18 1254 426.36 1254 0 1254 C0 840.18 0 426.36 0 0 Z " fill="#FDFDFD" transform="translate(0,0)"/>
<path d="M0 0 C1.8372402 -0.01451001 1.8372402 -0.01451001 3.71159637 -0.02931315 C5.0676507 -0.0248999 6.42370411 -0.02019676 7.77975655 -0.01523495 C9.22276855 -0.02084003 10.66577599 -0.02774245 12.10877621 -0.03583091 C16.07456824 -0.05419511 20.04017065 -0.05378303 24.00599551 -0.05024779 C28.28286657 -0.04963602 32.55967657 -0.06618951 36.83651924 -0.08042049 C45.21562167 -0.10534692 53.59466079 -0.11358531 61.97379719 -0.11525763 C68.78379172 -0.11668271 75.59376536 -0.12284492 82.40375328 -0.1323595 C101.70689845 -0.15878048 121.00999357 -0.17261733 140.31315695 -0.17036808 C141.35393932 -0.17024821 142.39472169 -0.17012835 143.46704292 -0.17000484 C144.50909441 -0.1698822 145.5511459 -0.16975956 146.62477471 -0.1696332 C163.51684769 -0.16841356 180.40872014 -0.1971281 197.3007351 -0.23941994 C214.64098181 -0.28249186 231.98113066 -0.3032316 249.32143223 -0.30063862 C259.05850004 -0.29964207 268.79535758 -0.30791096 278.53237724 -0.34017277 C286.82191741 -0.36746243 295.11115201 -0.37403482 303.4007176 -0.3536445 C307.6305901 -0.34383571 311.85987604 -0.34372392 316.08969307 -0.36970425 C319.96253805 -0.39324748 323.83432973 -0.38906207 327.70714845 -0.36285185 C329.10752269 -0.35823503 330.50797485 -0.36374068 331.90825723 -0.38043208 C343.66319884 -0.51126286 343.66319884 -0.51126286 348.19420242 3.24476051 C352.59664796 7.78901422 353.3027342 11.5190754 353.31323433 17.69840336 C353.33772652 18.44541508 353.3622187 19.1924268 353.38745308 19.96207523 C353.41988036 26.11785392 351.45587955 29.44865061 347.43823433 34.13590336 C343.79098428 37.1752784 340.27544632 37.73533038 335.62573433 38.26090336 C316.48249098 40.87404516 295.87396172 47.63847127 283.34448433 63.33512211 C273.77934939 77.28427723 272.47994406 92.38076589 272.55296516 108.80289555 C272.54894791 110.40400048 272.54361572 112.00510255 272.53709942 113.60619926 C272.5230689 117.9631769 272.52734039 122.31996606 272.53481257 126.6769526 C272.53958189 131.39293784 272.52696218 136.10888147 272.51645088 140.82485294 C272.50052109 148.9866027 272.49519561 157.14830289 272.49697876 165.31006718 C272.49937127 177.13542172 272.48331872 188.96069767 272.46252621 200.7860316 C272.42904099 220.00828128 272.40735461 239.2305239 272.39453316 258.45279789 C272.39337892 260.17604811 272.39337892 260.17604811 272.39220137 261.93411148 C272.38909959 266.58796303 272.38601677 271.2418146 272.38296133 275.89566618 C272.37443964 288.6891259 272.36353509 301.48258315 272.35156441 314.27604008 C272.34996238 315.99353431 272.34996238 315.99353431 272.34832799 317.74572539 C272.33018683 336.88986238 272.3041663 356.03398272 272.27343327 375.17810345 C272.25496029 386.96149441 272.24396855 398.74484784 272.24291135 410.5282535 C272.24180131 418.61488731 272.23378603 426.70149547 272.2205277 434.78811842 C272.2131672 439.4411014 272.2089644 444.09402822 272.21364594 448.74701595 C272.23036301 467.37410797 272.16488756 485.85992345 269.93823433 504.38590336 C269.82886099 505.30341562 269.71948765 506.22092789 269.60679996 507.16624355 C266.06746585 536.33932822 257.94581778 564.98394021 244.93823433 591.38590336 C244.59324898 592.09359867 244.24826363 592.80129398 243.89282417 593.53043461 C238.50014612 604.47853272 232.1824147 614.57023148 224.93823433 624.38590336 C224.2447187 625.32562992 223.55120308 626.26535648 222.83667183 627.23355961 C207.23274923 647.2053756 188.1884666 661.64856571 165.93823433 673.38590336 C164.90956245 673.93504398 163.88089058 674.48418461 162.82104683 675.04996586 C156.39144662 678.38590336 156.39144662 678.38590336 152.93823433 678.38590336 C152.93823433 679.04590336 152.93823433 679.70590336 152.93823433 680.38590336 C153.77886421 680.36052494 154.61949409 680.33514652 155.48559761 680.30899906 C166.7227673 680.12474618 177.66533062 681.24579551 188.81323433 682.57340336 C190.75821694 682.79910834 192.70320398 683.02477516 194.64819527 683.25040531 C209.05227081 684.94393607 223.38346425 686.98299638 237.70385933 689.27262211 C242.14578244 689.98282036 246.58135873 690.5928729 251.04901314 691.10532475 C257.4872032 691.84754021 263.68628072 692.91194083 269.95385933 694.59635258 C275.56835039 696.08173086 281.25965552 697.23643594 286.93823433 698.44840336 C288.7094062 698.83222172 288.7094062 698.83222172 290.51635933 699.22379398 C296.08938928 700.41757628 301.64736743 701.52729769 307.27807808 702.41324711 C312.1775519 703.20582095 316.7817611 704.36876959 321.50073433 705.88590336 C327.9022334 707.88122478 334.31997442 709.79104549 340.78198433 711.58121586 C373.23402423 720.5915763 404.79663827 731.562722 435.93823433 744.38590336 C436.57055977 744.64566959 437.20288521 744.90543583 437.85437202 745.17307377 C480.36602261 762.67181281 521.01658147 784.35634778 558.93823433 810.38590336 C555.59056895 811.50179182 554.87512014 811.29312693 551.63354683 810.26871586 C550.75472847 809.99599857 549.87591011 809.72328129 548.97046089 809.44229984 C548.01107613 809.134939 547.05169136 808.82757816 546.06323433 808.51090336 C545.05744331 808.19645267 544.0516523 807.88200199 543.01538277 807.5580225 C540.82159834 806.87175574 538.62893655 806.18189264 536.43725777 805.4889307 C532.83978634 804.35486875 529.2375638 803.23726001 525.63354683 802.12418461 C515.09934428 798.87032341 504.57208968 795.5957498 494.06323433 792.26090336 C477.12195521 786.8985169 460.17177216 781.72944236 442.93823433 777.38590336 C441.92196968 777.12841312 440.90570503 776.87092289 439.85864449 776.60562992 C431.55853441 774.50517389 423.25039389 772.43811202 414.93823433 770.38590336 C413.73779488 770.08893559 412.53735542 769.79196781 411.30053902 769.48600101 C379.86084748 761.72997244 348.27643834 755.41654027 316.39154243 749.81754398 C314.20622258 749.43305382 312.0215759 749.04502061 309.83716011 748.65543461 C268.67863961 741.37757164 226.97272775 736.95386601 185.31469917 733.7989893 C181.10933459 733.47944161 176.90627787 733.13840484 172.70401192 732.78049564 C153.84033165 731.19701054 134.97951929 730.0556994 116.06323433 729.32340336 C114.39508391 729.25861853 114.39508391 729.25861853 112.69323349 729.19252491 C87.51885438 728.23658736 62.35620763 727.98915251 37.16553688 728.0083437 C33.55540378 728.01095422 29.94527976 728.01027716 26.33514595 728.00953007 C-5.29380172 728.01708783 -36.85080116 728.50487864 -68.43676567 730.19840336 C-69.21986233 730.23999828 -70.00295898 730.28159321 -70.80978584 730.32444859 C-99.95312624 731.8846635 -128.99967946 734.43002296 -158.00707817 737.63980961 C-162.97682855 738.17884177 -167.9496163 738.66030304 -172.92895317 739.10074711 C-188.91223765 740.51606343 -204.75992219 742.31853191 -220.63061333 744.7233057 C-226.04542075 745.53836529 -231.46593161 746.31367567 -236.88598442 747.09293461 C-240.10355021 747.55683407 -243.32106944 748.02105504 -246.53857231 748.48539066 C-248.64786792 748.78957127 -250.75724069 749.09321737 -252.86669731 749.39627934 C-274.97224496 752.56291565 -274.97224496 752.56291565 -296.87426567 756.88590336 C-302.39447698 758.10563114 -307.9059416 758.97549266 -313.49926567 759.76090336 C-323.97876281 761.24772936 -334.25050779 763.48780918 -344.56908989 765.82340336 C-347.70810601 766.53175724 -350.85248167 767.21295806 -353.99926567 767.88590336 C-355.06918755 768.11535648 -356.13910942 768.34480961 -357.24145317 768.58121586 C-360.32822505 769.2313948 -363.41672669 769.87027953 -366.50707817 770.50309086 C-383.58385326 774.00744084 -400.55800452 777.74690049 -417.33154106 782.51310062 C-422.81950324 784.06613766 -428.33481024 785.46669207 -433.87426567 786.82340336 C-450.56559517 790.9479141 -466.99389392 795.93960896 -483.43676567 800.94840336 C-484.57915703 801.29575535 -484.57915703 801.29575535 -485.744627 801.65012455 C-487.98387253 802.33185712 -490.22225961 803.01631581 -492.46020317 803.70230961 C-493.53990379 804.03247074 -493.53990379 804.03247074 -494.64141655 804.3693018 C-498.24691219 805.4814153 -501.83004665 806.63669271 -505.39477348 807.87369633 C-506.42654213 808.22983257 -506.42654213 808.22983257 -507.47915459 808.59316349 C-509.35813852 809.24727689 -511.23281781 809.91371841 -513.10717583 810.58097172 C-516.06176567 811.38590336 -516.06176567 811.38590336 -519.06176567 810.38590336 C-463.40390121 778.34340931 -402.11927409 750.24287988 -339.87426567 733.82340336 C-334.91862527 732.48511825 -330.03283302 731.08783674 -325.18676567 729.38590336 C-319.26736584 727.35034633 -313.24725694 725.88694475 -307.16872978 724.41715336 C-302.00907918 723.15764783 -296.9032018 721.78674816 -291.81176567 720.27604008 C-279.84207274 716.73041536 -267.76986153 713.96883589 -255.56176567 711.38590336 C-253.54383229 710.95347883 -251.52601121 710.52052996 -249.50829887 710.08707523 C-235.90851599 707.17255781 -222.29524734 704.32166156 -208.66723442 701.54215336 C-203.78577624 700.54421775 -198.92189552 699.48286057 -194.06176567 698.38590336 C-197.05091876 696.39313464 -199.62718301 695.39600363 -202.99926567 694.19840336 C-222.05931453 686.93440696 -236.27826909 674.07010572 -244.99926567 655.63590336 C-245.7498901 653.91203584 -246.4278705 652.15602572 -247.06176567 650.38590336 C-247.31925591 649.68634525 -247.57674614 648.98678715 -247.84203911 648.26603031 C-250.13993906 641.47498811 -250.53243398 635.20830252 -250.43676567 628.07340336 C-250.41936333 626.41365482 -250.41936333 626.41365482 -250.40160942 624.72037601 C-249.99501451 604.4235166 -242.26423314 588.12862323 -227.57348442 573.99137211 C-212.02102935 560.46649637 -193.65491325 553.86166143 -173.08276176 555.20133305 C-153.68901844 556.97249395 -136.13436783 566.08620527 -123.06176567 580.38590336 C-117.57654672 587.02359652 -112.98488798 594.26914048 -110.06176567 602.38590336 C-109.69180473 603.28953617 -109.3218438 604.19316898 -108.94067192 605.12418461 C-103.16441821 620.85398278 -104.81845771 639.00519976 -111.06176567 654.38590336 C-118.45802567 669.74508723 -131.02325373 681.1623369 -145.06176567 690.38590336 C-140.60275 689.91295049 -136.14469335 689.43149532 -131.68676567 688.94840336 C-130.41575005 688.81369633 -129.14473442 688.6789893 -127.83520317 688.54020023 C-126.62348442 688.40807133 -125.41176567 688.27594242 -124.16332817 688.13980961 C-123.04264946 688.01936283 -121.92197075 687.89891605 -120.76733208 687.77481937 C-118.10034701 687.53661103 -118.10034701 687.53661103 -116.06176567 686.38590336 C-114.31125308 686.10525533 -112.55307558 685.87181268 -110.7927227 685.66153812 C-109.6904232 685.52792377 -108.5881237 685.39430943 -107.45242119 685.25664616 C-106.25358299 685.1149651 -105.0547448 684.97328403 -103.81957817 684.82730961 C-102.58569359 684.67809559 -101.35180901 684.52888157 -100.08053398 684.37514591 C-96.78760677 683.97717124 -93.49436007 683.58211123 -90.20086479 683.18888187 C-85.60026759 682.63958181 -80.9999464 682.08804733 -76.40011406 681.53237247 C-73.95392213 681.23694771 -71.50742387 680.94404455 -69.06057549 680.65410709 C-62.56757558 679.87089276 -56.12409526 678.9422654 -49.67852592 677.83425236 C-46.55919981 677.29979501 -43.43296509 676.83328477 -40.30004692 676.38590336 C-39.1611602 676.22090336 -38.02227348 676.05590336 -36.84887505 675.88590336 C-34.5209872 675.55091781 -32.19285872 675.21760053 -29.86450005 674.88590336 C-19.09884426 673.32087901 -8.76011673 670.86124952 1.75073433 668.07340336 C2.84966011 667.79045414 3.94858589 667.50750492 5.08081245 667.21598148 C11.70897687 665.45445988 17.94020558 663.28662949 24.22998238 660.55338383 C26.53131582 659.56131887 28.83065163 658.66536712 31.18823433 657.81949711 C60.25326069 647.08491392 84.0414664 624.19875814 97.12573433 596.39762211 C101.57380864 586.66039163 105.29946698 576.85657652 108.07885933 566.50699711 C108.93823433 563.38590336 108.93823433 563.38590336 109.927248 560.65396976 C111.03461495 557.07434796 111.53436404 553.69609222 111.97339058 549.97574711 C112.0987645 548.94085903 112.0987645 548.94085903 112.22667122 547.88506413 C112.49058678 545.69850091 112.74607473 543.51106211 113.00073433 541.32340336 C113.26047308 539.1323852 113.52200963 536.94159996 113.78550911 534.75103092 C114.02352366 532.76636757 114.25652925 530.78110539 114.48925972 528.79581547 C114.93823433 525.38590336 114.93823433 525.38590336 115.45843017 523.11491519 C116.04023637 519.80574001 116.06364046 516.67293421 116.06407547 513.31180191 C116.06552891 512.60775438 116.06698235 511.90370685 116.06847984 511.17832455 C116.07213637 508.81334765 116.06865499 506.44843535 116.06521797 504.0834589 C116.06636993 502.37305268 116.06795796 500.6626467 116.06994522 498.95224124 C116.07412838 494.24732308 116.07205238 489.54242514 116.068959 484.83750689 C116.06670097 479.76513666 116.07018657 474.69276996 116.07293892 469.62040043 C116.07739155 459.68085495 116.07642231 449.74131702 116.07352628 439.80177125 C116.07126988 431.72367769 116.07096075 423.64558626 116.07205009 415.56749249 C116.07220333 414.4187048 116.07235656 413.26991712 116.07251444 412.08631769 C116.07283416 409.75269621 116.07315837 407.41907473 116.07348703 405.08545325 C116.07634043 383.18864485 116.07305718 361.29184063 116.06768666 339.39503292 C116.06322054 320.60398308 116.06399325 301.81293942 116.06860542 283.02188969 C116.07395672 261.20923743 116.07606387 239.39658885 116.07299316 217.58393604 C116.07267461 215.25787787 116.07236024 212.9318197 116.07205009 210.60576153 C116.07189582 209.4612564 116.07174154 208.31675128 116.07158259 207.13756418 C116.07071897 199.07011705 116.07217703 191.00267225 116.07452965 182.93522549 C116.07733407 173.10210904 116.07657585 163.26900057 116.0712489 153.43588503 C116.06862033 148.41826951 116.06759257 143.4006673 116.07089806 138.38305187 C116.07387843 133.78945697 116.07223909 129.19588771 116.0669205 124.60229514 C116.06580375 122.9408061 116.06637108 121.2793149 116.06879629 119.61782726 C116.07184215 117.35769688 116.06871257 115.09765407 116.06407547 112.83752823 C116.06383194 110.95514317 116.06383194 110.95514317 116.06358349 109.03473014 C115.53666447 93.69648472 109.02051265 80.55515473 97.85229683 70.02652836 C89.92890337 63.23504825 81.05725586 58.67295953 71.69458199 54.22574711 C70.30124556 53.55948671 68.92011545 52.86770908 67.54370308 52.16715336 C50.93535652 44.04314952 29.51427355 40.0972022 11.25073433 39.03043461 C10.23350288 38.96412846 9.21627144 38.8978223 8.1682148 38.82950687 C6.1373552 38.70287756 4.10487528 38.59953671 2.07153511 38.52237797 C-3.87768382 38.14303823 -7.3811006 37.16746884 -11.73241997 33.00846195 C-16.20205503 27.55296249 -16.6616784 21.14928283 -16.47973442 14.29605961 C-15.84555024 9.88047818 -14.17387712 6.57485706 -11.06176567 3.38590336 C-7.24926014 0.67732837 -4.65216118 0.00929652 0 0 Z " fill="#FD4602" transform="translate(607.0617656707764,274.6140966415405)"/>
<path d="M0 0 C1.7862999 -0.00378731 3.57259685 -0.00929074 5.35888672 -0.01637268 C10.18923987 -0.03028678 15.01923524 -0.01918781 19.84956837 -0.00266147 C24.91076221 0.01122483 29.97193605 0.00472521 35.03314209 0.00120544 C43.52671046 -0.00149286 52.0201372 0.01194964 60.51367188 0.03515625 C70.33235455 0.06179784 80.15080099 0.06350079 89.96950746 0.05176789 C99.4228761 0.04099113 108.87615932 0.04717417 118.32952118 0.06132317 C122.35015635 0.0670804 126.37072896 0.06700243 130.39136505 0.06225777 C135.12255453 0.05748714 139.85348503 0.0675932 144.58462524 0.08921242 C146.32086056 0.09477802 148.05712078 0.09524766 149.79335785 0.09025955 C152.16267681 0.08430594 154.53120403 0.09681239 156.90045166 0.11402893 C157.58790097 0.10801889 158.27535027 0.10200884 158.98363137 0.09581667 C163.26806533 0.15246037 165.94732949 0.88032254 169.35058594 3.50170898 C171.46733131 6.67682705 171.60063499 7.43108935 171.60112572 11.06126022 C171.60612441 12.00198309 171.61112311 12.94270595 171.61627328 13.91193557 C171.61161007 14.94741224 171.60694686 15.9828889 171.60214233 17.04974365 C171.60659754 18.69767737 171.60659754 18.69767737 171.61114275 20.37890267 C171.61881331 24.07972106 171.61227601 27.78038216 171.60595703 31.48120117 C171.60870563 34.12722852 171.61226628 36.77324235 171.6169281 39.41926575 C171.62557092 45.12902411 171.6273667 50.83875148 171.62498093 56.54851532 C171.62188385 64.82025239 171.63352162 73.09192097 171.64953072 81.36364082 C171.67551371 94.80500246 171.69551864 108.24636416 171.70898438 121.68774414 C171.70979474 122.49256958 171.71060511 123.29739502 171.71144004 124.12660912 C171.72264018 135.52553307 171.72793752 146.92445215 171.73082717 158.32338086 C171.73113315 159.52516158 171.73113315 159.52516158 171.73144531 160.7512207 C171.73164525 161.55142729 171.73184518 162.35163387 171.73205118 163.17608914 C171.73579297 176.5522503 171.75494332 189.92833757 171.78653967 203.30446172 C171.80539513 211.5463283 171.81145234 219.7880048 171.80072249 228.02988693 C171.79437071 233.68989344 171.80253527 239.34976449 171.82177661 245.00974134 C171.83238939 248.2683779 171.83451005 251.5266208 171.82330513 254.78526497 C171.78180818 267.91909427 171.78204118 280.05316951 176.35058594 292.50170898 C176.62023352 293.24660458 176.8898811 293.99150017 177.16769981 294.75896835 C183.14585222 309.7072787 193.84837185 318.73509246 207.35058594 326.50170898 C208.08148437 326.93225586 208.81238281 327.36280273 209.56542969 327.80639648 C214.64828618 330.57886366 220.13170967 332.02757803 225.69042969 333.57202148 C228.35058594 334.50170898 228.35058594 334.50170898 229.35058594 336.50170898 C192.39058594 336.50170898 155.43058594 336.50170898 117.35058594 336.50170898 C117.02058594 328.58170898 116.69058594 320.66170898 116.35058594 312.50170898 C114.83399211 303.3997326 114.83399211 303.3997326 111.91308594 295.25170898 C111.46835937 294.2475293 111.02363281 293.24334961 110.56542969 292.20874023 C110.16453125 291.31541992 109.76363281 290.42209961 109.35058594 289.50170898 C108.66996094 287.73827148 108.66996094 287.73827148 107.97558594 285.93920898 C97.6690536 264.13692904 78.27975842 248.21756485 55.78808594 240.12670898 C31.99917381 232.0317419 6.75043053 234.24401932 -15.77441406 245.18920898 C-22.85158258 248.76515639 -28.81677112 253.1062817 -34.64941406 258.50170898 C-35.42671875 259.18749023 -36.20402344 259.87327148 -37.00488281 260.57983398 C-51.23867105 273.80917245 -62.93161775 296.56325976 -63.76293945 316.18066406 C-63.75508423 317.58674927 -63.75508423 317.58674927 -63.74707031 319.02124023 C-63.74223633 320.55361328 -63.74223633 320.55361328 -63.73730469 322.11694336 C-63.72892578 323.17204102 -63.72054688 324.22713867 -63.71191406 325.31420898 C-63.70514648 326.92585937 -63.70514648 326.92585937 -63.69824219 328.57006836 C-63.68649135 331.21400582 -63.67006193 333.8578285 -63.64941406 336.50170898 C-74.64564334 336.57122523 -85.64182032 336.62452858 -96.6382246 336.6571455 C-101.74432831 336.67280014 -106.85028166 336.69403487 -111.95629883 336.72802734 C-116.88406667 336.76062778 -121.8116899 336.77856352 -126.73955727 336.78634071 C-128.61943145 336.79188298 -130.49929773 336.80270565 -132.37911034 336.81889915 C-135.01259835 336.84068252 -137.64548909 336.84367553 -140.27905273 336.84228516 C-141.44430733 336.8584639 -141.44430733 336.8584639 -142.63310242 336.87496948 C-147.16905707 336.8490633 -150.02350536 336.26689127 -153.64941406 333.50170898 C-156.71666512 330.36719365 -157.10533423 327.95755288 -157.14941406 323.62670898 C-157.05703482 319.6446776 -156.86904338 316.9583333 -154.33691406 313.81420898 C-150.23856163 310.28771968 -147.25395147 310.38116515 -142.01269531 310.40405273 C-140.71396484 310.40727539 -139.41523438 310.41049805 -138.07714844 310.41381836 C-136.70540298 310.42217367 -135.33365819 310.43063862 -133.96191406 310.43920898 C-132.57845211 310.44422563 -131.19498843 310.44878825 -129.81152344 310.45288086 C-126.42411011 310.46468369 -123.03678373 310.4811488 -119.64941406 310.50170898 C-119.64941406 306.54170898 -119.64941406 302.58170898 -119.64941406 298.50170898 C-121.45104004 298.68564209 -123.25266602 298.8695752 -125.10888672 299.05908203 C-143.03724055 300.87771492 -160.97436321 302.55825511 -178.92621994 304.13024521 C-181.06879953 304.31810058 -183.21130394 304.50679355 -185.35379028 304.69570923 C-202.58539579 306.21453701 -219.82002592 307.6929364 -237.05957031 309.11889648 C-237.85963501 309.18514662 -238.65969971 309.25139675 -239.48400879 309.31965446 C-247.24665857 309.96230105 -255.00949119 310.60248582 -262.77318954 311.23234844 C-266.33497995 311.52172624 -269.89656315 311.81357664 -273.45800781 312.10717773 C-274.47959488 312.1913882 -274.47959488 312.1913882 -275.52182007 312.27729988 C-286.95920045 313.22589237 -298.37300292 314.35051131 -309.78379822 315.57817078 C-310.9087117 315.69900528 -312.03362518 315.81983978 -313.19262695 315.94433594 C-314.17824112 316.05211868 -315.16385529 316.15990143 -316.17933655 316.27095032 C-318.64941406 316.50170898 -318.64941406 316.50170898 -321.64941406 316.50170898 C-321.64941406 315.84170898 -321.64941406 315.18170898 -321.64941406 314.50170898 C-315.43959808 312.94925499 -309.2297821 311.39680099 -303.01996613 309.844347 C-302.32662926 309.67101278 -301.63329239 309.49767857 -300.91894531 309.3190918 C-289.19759115 306.38875326 -277.47623698 303.45841471 -265.75488281 300.52807617 C-264.70794754 300.26634235 -264.70794754 300.26634235 -263.63986206 299.99932098 C-262.61761032 299.74375805 -262.61761032 299.74375805 -261.57470703 299.48303223 C-260.58177643 299.23479958 -260.58177643 299.23479958 -259.56878662 298.98155212 C-230.03417972 291.5979004 -230.03417972 291.5979004 -227.83982849 291.04931641 C-226.44274153 290.70004216 -225.04565691 290.35075861 -223.64857483 290.00146484 C-220.29596475 289.16326801 -216.9433121 288.32524215 -213.59057617 287.48754883 C-207.04806655 285.85269807 -200.50623279 284.21524908 -193.96582031 282.57202148 C-191.38124919 281.92332608 -188.79663224 281.27481778 -186.21191406 280.62670898 C-185.18683746 280.36958633 -185.18683746 280.36958633 -184.14105225 280.10726929 C-173.85046512 277.52814604 -163.54254432 275.03354538 -153.21850586 272.59130859 C-146.22416271 270.92104353 -139.28924374 269.09053329 -132.39013672 267.06152344 C-128.07343718 265.81017626 -124.17254535 265.1478706 -119.64941406 264.50170898 C-119.64941406 255.92170898 -119.64941406 247.34170898 -119.64941406 238.50170898 C-125.92972656 238.93483398 -125.92972656 238.93483398 -132.33691406 239.37670898 C-149.61506293 240.49906292 -166.9070286 241.12939942 -184.20922852 241.7512207 C-186.52783483 241.83463909 -188.84643835 241.91813508 -191.16503906 242.00170898 C-192.88330147 242.06359909 -192.88330147 242.06359909 -194.63627625 242.1267395 C-204.52691279 242.48759747 -214.41320726 242.92453492 -224.29998779 243.3772583 C-244.41134034 244.2959367 -264.5274755 244.99219253 -284.64941406 245.62670898 C-285.35471001 245.64904602 -286.06000595 245.67138306 -286.7866745 245.69439697 C-291.49085423 245.84332464 -296.19510549 245.98971877 -300.89941406 246.13452148 C-302.70087387 246.19061081 -302.70087387 246.19061081 -304.53872681 246.24783325 C-305.65290985 246.28149994 -306.7670929 246.31516663 -307.91503906 246.34985352 C-308.8821582 246.37935089 -309.84927734 246.40884827 -310.84570312 246.4392395 C-313.78119023 246.50464509 -316.71329711 246.51225811 -319.64941406 246.50170898 C-316.73365207 244.90853286 -314.06759327 244.02575782 -310.81982422 243.34765625 C-309.85122971 243.14265503 -308.88263519 242.93765381 -307.88468933 242.72644043 C-306.30256401 242.40056946 -306.30256401 242.40056946 -304.68847656 242.06811523 C-303.01843315 241.71747009 -303.01843315 241.71747009 -301.31465149 241.35974121 C-297.63571079 240.5889985 -293.95512027 239.82647211 -290.27441406 239.06420898 C-287.71127385 238.52930933 -285.14820505 237.99406733 -282.58520508 237.45849609 C-262.76091992 233.32158583 -242.92023388 229.26335422 -223.07177734 225.24414062 C-209.84483223 222.5657463 -196.62782291 219.84368608 -183.41841125 217.08009338 C-177.60384611 215.86555486 -171.78724724 214.6607875 -165.97094727 213.45458984 C-159.9563455 212.20305095 -153.9481321 210.92379502 -147.94238281 209.63061523 C-145.6762207 209.14423018 -143.4100002 208.65811795 -141.14376831 208.17205811 C-139.65607635 207.85199689 -138.16870529 207.53044013 -136.68167114 207.20733643 C-134.59355541 206.75366291 -132.50442271 206.30496982 -130.41503906 205.85717773 C-128.60181152 205.46502075 -128.60181152 205.46502075 -126.75195312 205.06494141 C-123.64941406 204.50170898 -123.64941406 204.50170898 -119.64941406 204.50170898 C-119.64941406 196.58170898 -119.64941406 188.66170898 -119.64941406 180.50170898 C-159.57941406 180.50170898 -199.50941406 180.50170898 -240.64941406 180.50170898 C-240.31941406 179.84170898 -239.98941406 179.18170898 -239.64941406 178.50170898 C-237.62646484 177.85424805 -237.62646484 177.85424805 -234.84472656 177.26733398 C-233.75208496 177.02982422 -232.65944336 176.79231445 -231.53369141 176.54760742 C-230.29312988 176.28496094 -229.05256836 176.02231445 -227.77441406 175.75170898 C-224.97604723 175.14384646 -222.17975744 174.52675148 -219.38378906 173.90795898 C-218.59124725 173.73294861 -217.79870544 173.55793823 -216.98214722 173.37762451 C-204.62777663 170.63064343 -192.3241914 167.65982251 -180.01320648 164.72569275 C-175.47535731 163.64419887 -170.93724475 162.56381069 -166.39910889 161.48352051 C-164.04109903 160.92201664 -161.68321897 160.3599673 -159.32550049 159.79724121 C-152.68909905 158.21544417 -146.04646911 156.66414334 -139.39627075 155.14134216 C-135.34287637 154.19746856 -131.32534394 153.1291902 -127.30566406 152.05249023 C-124.67233227 151.50646114 -122.32989791 151.39973406 -119.64941406 151.50170898 C-119.69582031 150.87264648 -119.74222656 150.24358398 -119.79003906 149.59545898 C-119.82613281 148.73952148 -119.86222656 147.88358398 -119.89941406 147.00170898 C-119.94582031 146.16639648 -119.99222656 145.33108398 -120.04003906 144.47045898 C-119.03600007 136.83976266 -113.5132097 130.05642993 -109.26660156 123.84155273 C-108.65229279 122.93401749 -108.03798401 122.02648224 -107.40505981 121.09144592 C-105.44937155 118.20426594 -103.4871156 115.32162472 -101.52441406 112.43920898 C-100.22968573 110.53131625 -98.93541099 108.62311561 -97.64160156 106.71459961 C-95.7427921 103.91375547 -93.84372586 101.11309172 -91.94294739 98.31358337 C-86.80126535 90.73846473 -81.71093173 83.13055379 -76.64941406 75.50170898 C-75.4737487 73.73210074 -74.29797681 71.96256325 -73.12207031 70.19311523 C-72.29533813 68.94872681 -72.29533813 68.94872681 -71.4519043 67.67919922 C-69.13908845 64.20332291 -66.81977932 60.73180387 -64.49858093 57.26152039 C-62.12770051 53.7164145 -59.7612528 50.16840733 -57.3984375 46.61791992 C-54.4075169 42.12488451 -51.40759661 37.63795277 -48.40304565 33.15402222 C-47.20046281 31.35636183 -46.00065324 29.55684285 -44.80374146 27.75540161 C-43.10223893 25.19568445 -41.39062328 22.64300334 -39.67675781 20.09155273 C-39.17304657 19.32886078 -38.66933533 18.56616882 -38.15036011 17.78036499 C-27.80529818 2.46892331 -17.85782153 -0.10797295 0 0 Z " fill="#FD4704" transform="translate(402.6494140625,575.498291015625)"/>
<path d="M0 0 C1.11339249 -0.0033284 2.22678497 -0.0066568 3.37391663 -0.01008606 C5.71940706 -0.01511928 8.06490456 -0.01749551 10.41040039 -0.01733398 C13.93192906 -0.01950613 17.45313651 -0.03766159 20.97460938 -0.05664062 C33.69013082 -0.08810554 46.16343124 0.3481935 58.78697205 1.90475464 C62.10665946 2.29341878 65.4343406 2.5916443 68.76309204 2.89155579 C71.6116792 3.23810692 74.30007164 3.91548909 77.06494141 4.6640625 C80.57529738 5.56187845 84.14737875 6.09567279 87.72265625 6.66796875 C88.43615234 6.78527344 89.14964844 6.90257813 89.88476562 7.0234375 C93.26543535 7.57550472 96.64098643 8.11594487 100.03735352 8.56420898 C108.19718484 9.68411332 115.77104246 11.69398089 123.59765625 14.23046875 C125.4896282 14.83253255 127.3816002 15.43459621 129.27357483 16.03665161 C131.22221639 16.65860314 133.16930048 17.28525055 135.11621094 17.91259766 C138.36305225 18.95647807 141.61649192 19.97754512 144.87348938 20.98924255 C147.9920128 21.95867582 151.10702313 22.93929365 154.22265625 23.91796875 C155.360979 24.26996338 156.49930176 24.62195801 157.67211914 24.98461914 C163.68390554 26.89520324 169.25564462 29.0687229 174.81591797 32.05883789 C177.1558214 33.22827478 179.48442907 34.05581927 181.97265625 34.85546875 C190.78056776 37.95615008 198.877613 42.67694409 207.03515625 47.16796875 C207.88996582 47.63799316 208.74477539 48.10801758 209.62548828 48.59228516 C233.37089394 61.72870537 256.34476693 76.54951497 277.03515625 94.16796875 C278.10651377 95.06541114 279.17814363 95.96252848 280.25 96.859375 C294.5385799 108.88822362 308.83587257 121.57018279 320.98828125 135.78515625 C322.58430418 137.64312188 324.19896922 139.47578564 325.83203125 141.30078125 C356.99565676 176.33611832 386.43498639 220.20005664 402.078125 264.57421875 C402.92799246 266.87753302 403.87152688 269.07038738 404.91015625 271.29296875 C407.20418449 276.30551078 408.96818207 281.49158694 410.75341797 286.70166016 C412.06106327 290.49676109 413.4581616 294.2190455 415 297.92578125 C417.33241905 303.69471975 418.97255943 309.60539217 420.59765625 315.60546875 C420.88833984 316.66056641 421.17902344 317.71566406 421.47851562 318.80273438 C422.05679916 320.90499555 422.63115335 323.00834188 423.20141602 325.11279297 C423.74563133 327.10702737 424.30034748 329.09843427 424.86694336 331.08642578 C426.47228481 336.76169569 427.6648491 342.32900394 428.47265625 348.16796875 C429.45492289 354.83148933 430.65910345 361.40061865 432.09765625 367.98046875 C434.73448121 380.2221636 436.24160439 392.19430399 436.6940918 404.71044922 C436.72543213 405.56010254 436.75677246 406.40975586 436.7890625 407.28515625 C436.81299072 408.03394043 436.83691895 408.78272461 436.86157227 409.55419922 C436.99777766 411.60513449 437.24315659 413.64885306 437.52905273 415.68432617 C438.92545201 426.53813897 438.47730144 437.67643545 438.53515625 448.60546875 C438.53902218 449.29203552 438.54288811 449.97860229 438.54687119 450.68597412 C438.63984519 470.39286601 437.8099169 489.64190307 434.84765625 509.16796875 C434.70166992 510.13685028 434.55568359 511.10573181 434.40527344 512.10397339 C432.40045329 525.08098864 429.6573699 537.86215651 426.62918091 550.63500977 C426.07671588 552.99075584 425.54617009 555.35002203 425.02514648 557.71289062 C422.75335466 567.91515999 419.76780208 577.77371605 416.41015625 587.66796875 C416.14782196 588.44688477 415.88548767 589.22580078 415.61520386 590.02832031 C399.9281915 636.52764834 378.68452079 681.53673303 348.40380859 720.40234375 C347.09311095 722.0932045 345.8047693 723.79854007 344.5234375 725.51171875 C339.99897213 731.53557617 335.269448 737.34074665 330.34765625 743.04296875 C329.82502197 743.64955322 329.3023877 744.2561377 328.76391602 744.88110352 C325.58071427 748.52769857 322.25334064 751.96389848 318.80493164 755.35913086 C316.9876083 757.21656618 315.29496506 759.14318492 313.60546875 761.1171875 C309.95141824 765.34631839 305.99871548 769.17493112 301.91015625 772.98046875 C301.16515869 773.67624023 300.42016113 774.37201172 299.65258789 775.08886719 C276.79341071 796.30877011 251.32745371 814.09357026 224.03515625 829.16796875 C223.23835449 829.61156738 222.44155273 830.05516602 221.62060547 830.51220703 C211.64092921 836.03777934 201.71924609 840.7057639 190.95703125 844.47363281 C187.6950183 845.65213444 184.4948483 846.98009957 181.28515625 848.29296875 C163.19673722 855.55516241 163.19673722 855.55516241 159.03515625 854.16796875 C159.99292969 853.69488281 160.95070313 853.22179687 161.9375 852.734375 C166.31350596 850.56556259 170.67654733 848.37150842 175.03515625 846.16796875 C175.72416016 845.82056641 176.41316406 845.47316406 177.12304688 845.11523438 C200.14215474 833.43887531 221.83112894 819.21080391 242.03515625 803.16796875 C242.9684375 802.42933594 243.90171875 801.69070313 244.86328125 800.9296875 C250.8405793 796.12223206 256.52754428 791.06112436 262.140625 785.83984375 C264.69291015 783.48388823 267.29091871 781.19854874 269.91015625 778.91796875 C279.33318 770.45090393 287.91934899 760.88858191 295.796875 750.98046875 C297.37875333 748.99276823 298.97672496 747.04293754 300.6171875 745.10546875 C314.90561892 728.02819894 327.34663095 708.68108033 338.03515625 689.16796875 C338.52258301 688.28592773 339.01000977 687.40388672 339.51220703 686.49511719 C357.80060185 653.15461493 371.04776638 617.53203176 379.30053711 580.44506836 C380.03934467 577.14928443 380.81792433 573.8644348 381.59765625 570.578125 C383.01127367 564.45383405 384.12414311 558.313667 385.09765625 552.10546875 C385.2675708 551.02910156 385.43748535 549.95273437 385.61254883 548.84375 C387.12950313 538.98609593 388.30286616 529.1149091 389.03515625 519.16796875 C389.12345703 517.98960449 389.21175781 516.81124023 389.30273438 515.59716797 C390.07547825 504.48970881 390.18928492 493.40721564 390.16552734 482.27587891 C390.1601755 479.30365878 390.16550422 476.33159054 390.171875 473.359375 C390.1755434 464.03217935 390.05848351 454.72671459 389.58984375 445.41015625 C389.55110138 444.61819855 389.51235901 443.82624084 389.47244263 443.01028442 C389.29346169 439.85843233 389.03847227 437.1779168 388.03515625 434.16796875 C387.79743612 432.38694028 387.59830959 430.60063985 387.421875 428.8125 C387.31045166 427.72686768 387.19902832 426.64123535 387.08422852 425.52270508 C386.90525024 423.7692981 386.90525024 423.7692981 386.72265625 421.98046875 C384.81780618 404.19433279 382.30425315 386.58072838 377.59912109 369.30029297 C376.97550011 366.94241171 376.40401338 364.57498822 375.8359375 362.203125 C360.05369293 297.37901676 327.89061734 236.32362505 284.45166016 185.82714844 C283.03126637 184.16341246 281.63099709 182.48450026 280.234375 180.80078125 C274.69094525 174.15850036 268.90037689 167.85280425 262.78515625 161.73046875 C262.13587158 161.08037842 261.48658691 160.43028809 260.81762695 159.76049805 C256.9542648 155.94127739 252.9715595 152.30713075 248.86132812 148.75561523 C246.49334008 146.69692189 244.20487595 144.55773953 241.91015625 142.41796875 C215.45290802 118.35602694 184.13176956 98.5200437 151.95361328 83.09472656 C150.0321279 82.16650583 148.12533792 81.21229804 146.21875 80.25390625 C125.77142885 70.12527288 103.99103758 63.18504456 82.03515625 57.16796875 C80.56613687 56.75355788 79.09736234 56.33827748 77.62890625 55.921875 C70.8975623 54.0543375 64.24433182 52.56119653 57.328125 51.5625 C55.03515625 51.16796875 55.03515625 51.16796875 53.03515625 50.16796875 C49.07636168 49.48117651 45.09297811 48.9699118 41.1105957 48.43847656 C39.1631133 48.17676516 37.21725667 47.90304262 35.27148438 47.62890625 C17.66649333 45.25917365 0.0285697 44.95806811 -17.71484375 44.98046875 C-18.68239594 44.98140533 -19.64994812 44.98234192 -20.64682007 44.98330688 C-34.84318944 45.01302508 -48.88224679 45.20980812 -62.96484375 47.16796875 C-64.1156543 47.32394531 -65.26646484 47.47992188 -66.45214844 47.640625 C-84.28797893 50.1248521 -101.62903108 53.71778879 -119.03662109 58.38525391 C-121.61900304 59.07552542 -124.2052943 59.74375155 -126.796875 60.3984375 C-131.99389172 61.72741318 -136.89594036 63.12746218 -141.80908203 65.31567383 C-144.53749031 66.39436843 -147.31197221 67.20601722 -150.125 68.0390625 C-156.74311445 70.03461165 -163.05384777 72.5061912 -169.40234375 75.23046875 C-170.52415039 75.71016113 -171.64595703 76.18985352 -172.80175781 76.68408203 C-225.77842089 99.6096993 -278.87984263 135.87983181 -314.9296875 181.6328125 C-316.99373354 184.20395622 -319.16649345 186.62047355 -321.40234375 189.04296875 C-330.72153319 199.31342493 -338.65489617 210.72927532 -346.54052734 222.11279297 C-347.43312939 223.40074703 -348.32881186 224.68657762 -349.22900391 225.96923828 C-367.65003448 252.26237524 -383.38572454 281.72435677 -394.15625 311.95751953 C-395.32612598 315.15560442 -396.6483607 318.27731636 -397.96484375 321.41796875 C-405.0105845 338.89756601 -412.07991536 358.3186848 -413.96484375 377.16796875 C-414.29484375 377.49796875 -414.62484375 377.82796875 -414.96484375 378.16796875 C-415.23681111 379.61610667 -415.45503627 381.07444901 -415.6484375 382.53515625 C-415.77154297 383.42074219 -415.89464844 384.30632812 -416.02148438 385.21875 C-416.2742864 387.09337426 -416.52431155 388.96837521 -416.77148438 390.84375 C-416.89587891 391.73191406 -417.02027344 392.62007813 -417.1484375 393.53515625 C-417.25728271 394.35097168 -417.36612793 395.16678711 -417.47827148 396.00732422 C-417.96484375 398.16796875 -417.96484375 398.16796875 -419.96484375 401.16796875 C-420.93155967 378.82608978 -415.08525864 355.36427415 -409.63574219 333.84228516 C-408.94647642 331.09475343 -408.28679285 328.34113604 -407.62890625 325.5859375 C-404.3718929 312.23229701 -399.9712479 299.56434075 -394.96630859 286.77197266 C-393.63290404 283.30486077 -392.4214324 279.80615906 -391.21484375 276.29296875 C-389.54198226 271.54457154 -387.57020378 267.12942271 -385.22070312 262.68041992 C-384.02874966 260.29581784 -383.03425224 257.91673097 -382.078125 255.4296875 C-372.68405709 231.67221006 -358.57755516 209.05040761 -343.96484375 188.16796875 C-343.5663623 187.59369141 -343.16788086 187.01941406 -342.75732422 186.42773438 C-334.50159044 174.54888672 -325.7951567 163.04173963 -316 152.3828125 C-314.18017206 150.40230878 -312.40918044 148.39170598 -310.65234375 146.35546875 C-301.40813124 135.75687161 -291.89082296 125.29925636 -281.20703125 116.1328125 C-279.04333646 114.23675243 -276.93978967 112.28524118 -274.84057617 110.31835938 C-267.87655655 103.81996722 -260.55884378 97.91153207 -252.96484375 92.16796875 C-252.23845703 91.61705566 -251.51207031 91.06614258 -250.76367188 90.49853516 C-227.31403506 72.78268084 -202.37252178 57.68896522 -176.08984375 44.54296875 C-174.3896106 43.69158325 -174.3896106 43.69158325 -172.6550293 42.82299805 C-162.59188089 37.85865016 -152.32208616 33.55762436 -141.77734375 29.73046875 C-140.95967529 29.43317871 -140.14200684 29.13588867 -139.29956055 28.82958984 C-137.63372117 28.22491482 -135.96746854 27.62137692 -134.30078125 27.01904297 C-132.22419845 26.2624619 -130.15617489 25.487147 -128.08984375 24.703125 C-118.51266288 21.1255989 -108.72955976 18.27728496 -98.90234375 15.48046875 C-98.23369293 15.28801575 -97.56504211 15.09556274 -96.87612915 14.89727783 C-88.62131619 12.53044158 -80.40052573 10.54679932 -71.93089294 9.1028595 C-68.66579475 8.76560701 -68.66579475 8.76560701 -65.96484375 7.16796875 C-63.21574344 6.63342147 -60.48085763 6.16067684 -57.71484375 5.73046875 C-56.87888672 5.59850098 -56.04292969 5.4665332 -55.18164062 5.33056641 C-47.72411231 4.19758514 -40.24884354 3.44277567 -32.73339844 2.81469727 C-31.47124512 2.70726196 -31.47124512 2.70726196 -30.18359375 2.59765625 C-29.44044922 2.53819824 -28.69730469 2.47874023 -27.93164062 2.41748047 C-25.75545842 2.20612836 -25.75545842 2.20612836 -22.96484375 1.16796875 C-15.33869612 0.12875682 -7.68410488 0.00822379 0 0 Z " fill="#FD4703" transform="translate(722.96484375,102.83203125)"/>
<path d="M0 0 C1.43444773 0.00187274 2.86889612 0.00329257 4.30334473 0.00428772 C8.01855337 0.00804569 11.73372083 0.01781561 15.44891357 0.0289917 C19.2641138 0.03935324 23.07932091 0.04381641 26.89453125 0.04882812 C34.33595596 0.05944636 41.77734714 0.07643826 49.21875 0.09765625 C49.31039775 37.18579535 49.38083549 74.27391732 49.42301132 111.36214683 C49.42801387 115.74533766 49.43319118 120.12852826 49.43847656 124.51171875 C49.4395258 125.38429653 49.44057505 126.25687431 49.44165608 127.15589385 C49.45903943 141.26613121 49.49056566 155.37630308 49.52736118 169.48650165 C49.56482832 183.97558417 49.58699803 198.46463249 49.59510398 212.95376146 C49.60057981 221.88718499 49.6178457 230.82042337 49.65041587 239.75378989 C49.6716351 245.88800888 49.67793337 252.0221328 49.67275551 258.15638579 C49.67020518 261.690312 49.67398618 265.22391571 49.6955719 268.75778389 C49.85322645 295.8997717 49.85322645 295.8997717 45.21875 307.09765625 C44.93846073 307.82332102 44.65817146 308.54898579 44.36938858 309.2966404 C38.16578344 324.30496839 27.65470108 333.9852791 13.046875 340.515625 C4.05075114 343.88309299 -4.15911084 344.36562721 -13.71875 344.47265625 C-14.98138672 344.51003906 -16.24402344 344.54742188 -17.54492188 344.5859375 C-27.92709732 344.68455447 -27.92709732 344.68455447 -31.53515625 341.94921875 C-36.35150536 335.83454945 -36.06828288 329.59027721 -36.03953552 322.14175415 C-36.04321123 321.03562944 -36.04688693 319.92950473 -36.05067402 318.78986108 C-36.06065712 315.0820285 -36.05650253 311.37434578 -36.05249023 307.66650391 C-36.05687709 305.00867609 -36.06206868 302.35086178 -36.06832886 299.69303894 C-36.08036391 293.96858835 -36.08548127 288.24416557 -36.08621025 282.51970291 C-36.08753709 274.23441279 -36.10265936 265.94919008 -36.12170542 257.66392379 C-36.1525373 244.20955128 -36.1767071 230.75517707 -36.19458008 217.30078125 C-36.1961891 216.09333358 -36.1961891 216.09333358 -36.19783062 214.86149304 C-36.20964933 205.88184566 -36.21985517 196.90219759 -36.22827148 187.92254639 C-36.23134542 184.66678872 -36.23443421 181.41103107 -36.23754883 178.15527344 C-36.23869684 176.95020908 -36.23869684 176.95020908 -36.23986804 175.7208 C-36.2529558 162.31859603 -36.27760345 148.91644087 -36.31129223 135.51427305 C-36.33156584 127.25148975 -36.34187388 118.98881091 -36.33930302 110.72600256 C-36.33826685 105.06282282 -36.3479225 99.3997256 -36.36594205 93.73657466 C-36.37597223 90.47074401 -36.37948906 87.20513268 -36.37317467 83.93928719 C-36.36704061 80.39518002 -36.37925267 76.85158797 -36.39598083 73.30752563 C-36.38976902 72.2804741 -36.3835572 71.25342256 -36.37715715 70.19524825 C-36.44077882 62.7970015 -37.50286437 56.09039921 -42.53125 50.28515625 C-42.97984375 49.74246094 -43.4284375 49.19976563 -43.890625 48.640625 C-49.13119866 44.36371055 -55.34607068 43.43625574 -61.84375 42.53515625 C-62.68373535 42.41221191 -63.5237207 42.28926758 -64.38916016 42.16259766 C-66.07841195 41.9161209 -67.76818769 41.67320525 -69.45849609 41.43408203 C-71.44083697 41.1469614 -73.41835576 40.82687011 -75.39453125 40.5 C-82.03062316 39.42709891 -88.6171998 38.86305371 -95.32421875 38.55126953 C-96.23913589 38.50859514 -97.15405304 38.46592075 -98.09669495 38.4219532 C-108.47025961 37.97523936 -118.83733563 37.9526352 -129.21875 37.96484375 C-131.28426118 37.96416772 -133.34977229 37.96319522 -135.4152832 37.96194458 C-139.69418106 37.96048694 -143.97305776 37.96256249 -148.25195312 37.96728516 C-153.73145691 37.97303964 -159.21091232 37.96965554 -164.69041443 37.96371269 C-168.93343473 37.96010367 -173.17644347 37.96124625 -177.41946411 37.96384048 C-179.44166062 37.96450582 -181.46385819 37.96369511 -183.48605347 37.96136093 C-186.29672045 37.95882253 -189.10730771 37.9626892 -191.91796875 37.96826172 C-192.74596985 37.96623749 -193.57397095 37.96421326 -194.42706299 37.96212769 C-198.35749469 37.97656908 -201.93750908 38.17467516 -205.78125 39.09765625 C-207.47282394 39.23684162 -209.16755373 39.34123985 -210.86328125 39.4140625 C-211.79462891 39.45595703 -212.72597656 39.49785156 -213.68554688 39.54101562 C-214.64525391 39.58033203 -215.60496094 39.61964844 -216.59375 39.66015625 C-217.57279297 39.70333984 -218.55183594 39.74652344 -219.56054688 39.79101562 C-221.96732027 39.89667885 -224.37418983 39.99877952 -226.78125 40.09765625 C-225.78125 38.09765625 -225.78125 38.09765625 -223.24365234 37.10791016 C-222.12941895 36.76679199 -221.01518555 36.42567383 -219.8671875 36.07421875 C-218.63790527 35.69475098 -217.40862305 35.3152832 -216.14208984 34.92431641 C-214.81359408 34.52337344 -213.48497854 34.12282711 -212.15625 33.72265625 C-210.81581407 33.31332836 -209.47548193 32.90366046 -208.13525391 32.49365234 C-199.39780596 29.832584 -190.63275055 27.3539211 -181.78125 25.09765625 C-179.96825152 24.57856077 -178.15573107 24.05779208 -176.34375 23.53515625 C-170.58980251 21.95580865 -164.7474248 20.92042521 -158.8828125 19.85546875 C-154.85616606 19.12073526 -150.84978233 18.31302556 -146.84375 17.47265625 C-145.70035156 17.23289062 -144.55695313 16.993125 -143.37890625 16.74609375 C-140.86809563 16.35610159 -140.86809563 16.35610159 -139.78125 15.09765625 C-138.33067245 14.82474023 -136.86962195 14.60693792 -135.40625 14.4140625 C-134.50261719 14.29095703 -133.59898437 14.16785156 -132.66796875 14.04101562 C-131.71535156 13.91533203 -130.76273437 13.78964844 -129.78125 13.66015625 C-127.92660748 13.41503217 -126.07243007 13.16636169 -124.21875 12.9140625 C-123.39246094 12.80521729 -122.56617188 12.69637207 -121.71484375 12.58422852 C-119.30508748 12.18454108 -116.97839509 11.68974414 -114.60253906 11.13427734 C-109.50375755 9.98082897 -104.39028724 9.31447551 -99.203125 8.6953125 C-98.20605026 8.5729422 -97.20897552 8.4505719 -96.1816864 8.32449341 C-92.96545004 7.93145837 -89.74843362 7.54535478 -86.53125 7.16015625 C-84.31127581 6.8917118 -82.09130512 6.62323836 -79.87133789 6.35473633 C-67.99512458 4.92517246 -56.11594451 3.52943045 -44.21875 2.28515625 C-42.63175293 2.11802124 -42.63175293 2.11802124 -41.01269531 1.94750977 C-27.33346643 0.57016351 -13.7451555 -0.05408611 0 0 Z " fill="#FD4602" transform="translate(631.78125,502.90234375)"/>
<path d="M0 0 C1.02612333 0.00201133 2.05224667 0.00402266 3.10946465 0.00609493 C4.29005455 -0.00366871 5.47064445 -0.01343235 6.68700981 -0.02349186 C7.97859001 -0.00865757 9.27017021 0.00617672 10.60088921 0.02146053 C11.97753148 0.01959634 13.35417228 0.01555942 14.73080254 0.0095129 C18.46640747 -0.00046505 22.20125413 0.0207112 25.93674898 0.04799294 C29.8435696 0.07181177 33.75037489 0.06887789 37.65725517 0.06929684 C44.21607122 0.07392507 50.77459699 0.09757066 57.33331108 0.13376522 C64.92238315 0.17553364 72.51119394 0.19308206 80.10037434 0.19638497 C88.17392728 0.19998073 96.24738585 0.21884765 104.32089949 0.24350524 C106.65071177 0.24974121 108.98051687 0.25337284 111.31033516 0.25653934 C114.96621865 0.26242835 118.62191438 0.27870878 122.2777195 0.3031435 C124.26444542 0.3141664 126.25121793 0.31542421 128.23797417 0.31644344 C129.41292442 0.32641857 130.58787468 0.3363937 131.79842949 0.3466711 C133.33648341 0.35364686 133.33648341 0.35364686 134.90560913 0.36076355 C137.32696342 0.62082577 137.32696342 0.62082577 139.32696342 2.62082577 C139.53123052 5.70860053 139.61008351 8.70705269 139.60162163 11.79636288 C139.60673256 12.74768597 139.61184349 13.69900906 139.6171093 14.67916012 C139.63105178 17.83555992 139.63004502 20.99174251 139.62774467 24.14816952 C139.63162907 26.33530923 139.6359632 28.52244818 139.6407299 30.70958614 C139.64820216 35.29875793 139.64789358 39.88785279 139.64263725 44.47702694 C139.63684158 50.36654541 139.65377127 56.25574951 139.67698193 62.14521599 C139.69169292 66.66357428 139.69259455 71.18185641 139.6894722 75.70023441 C139.68998675 77.87201784 139.69524937 80.04380538 139.70528412 82.21556568 C139.71758001 85.24921802 139.71089796 88.28225215 139.69927788 91.31589413 C139.70692162 92.21833858 139.71456535 93.12078304 139.72244072 94.0505743 C139.71542641 94.87639507 139.70841209 95.70221584 139.70118523 96.55306149 C139.70135297 97.27038417 139.70152071 97.98770685 139.70169353 98.72676659 C139.32696342 100.62082577 139.32696342 100.62082577 138.30457497 102.35167217 C135.17969092 104.3571003 131.90623832 104.02921911 128.31095695 103.99504757 C127.07191238 104.00100918 127.07191238 104.00100918 125.80783659 104.00709122 C123.03010344 104.01674308 120.25287594 104.00487882 117.47515678 103.99314022 C115.4878349 103.99556721 113.50051423 103.99928563 111.51319695 104.00420284 C106.1083891 104.01362749 100.70376184 104.00417349 95.29896808 103.99087071 C89.65176974 103.97957736 84.00458057 103.98366204 78.35737419 103.98561764 C68.87381848 103.98650121 59.39033416 103.97540636 49.90679741 103.95700741 C38.92942567 103.93583274 27.95215851 103.93233083 16.97477049 103.93856937 C6.43005546 103.94425606 -4.11462258 103.93862597 -14.65933228 103.92739582 C-19.15412706 103.92274123 -23.64889929 103.92187968 -28.14369583 103.92398167 C-33.4320443 103.92585978 -38.72028571 103.91779758 -44.00860977 103.90192127 C-45.9541244 103.89766437 -47.89964986 103.89683724 -49.84516716 103.89961147 C-52.49156842 103.9028137 -55.13764581 103.89380135 -57.78401375 103.88152218 C-58.56211326 103.8853015 -59.34021278 103.88908083 -60.14189106 103.89297467 C-65.44470747 103.84915487 -65.44470747 103.84915487 -67.67303658 101.62082577 C-67.39318675 97.1688896 -65.35410857 94.19361462 -62.93084908 90.53879452 C-62.53568092 89.9383482 -62.14051277 89.33790188 -61.73336983 88.71926022 C-60.38820711 86.68083171 -59.03098252 84.65075756 -57.67303658 82.62082577 C-56.67491064 81.11800195 -55.67720347 79.61489993 -54.67987251 78.11154842 C-51.90735304 73.93894902 -49.12433375 69.77344833 -46.33856392 65.60968685 C-38.47510617 53.85591366 -30.62115816 42.09641055 -22.86834908 30.26926327 C-22.33813148 29.46049236 -21.80791389 28.65172146 -21.2616291 27.81844234 C-18.76410466 24.00641217 -16.27073764 20.19172152 -13.78192329 16.3739996 C-12.89148899 15.0122463 -12.0010283 13.65051026 -11.11053658 12.28879452 C-10.71697975 11.68236111 -10.32342293 11.0759277 -9.91794014 10.45111752 C-8.85537515 8.8283723 -7.76499078 7.22394223 -6.67303658 5.62082577 C-6.0885531 4.74427806 -5.50406963 3.86773035 -4.90187454 2.96462059 C-2.67303658 0.62082577 -2.67303658 0.62082577 0 0 Z " fill="#AC2D03" transform="translate(397.6730365753174,608.3791742324829)"/>
<path d="M0 0 C8.02043765 6.139598 14.06235916 15.46458346 15.7421875 25.5078125 C17.06530192 38.29791854 15.54171945 48.18881449 7.94921875 58.890625 C2.27629453 65.62155462 -4.62784454 71.68490007 -13.625 72.875 C-14.73875 72.91625 -15.8525 72.9575 -17 73 C-17 73.66 -17 74.32 -17 75 C-31.09931946 75.75174097 -41.81075926 74.31193355 -53.0390625 64.8671875 C-62.13250883 56.20848761 -66.49463788 45.73760912 -66.8125 33.25 C-66.75010569 22.00633397 -63.03464843 12.97132721 -55.81640625 4.41015625 C-39.67827021 -11.03757825 -18.43108599 -11.2899831 0 0 Z " fill="#FDFBFA" transform="translate(454,868)"/>
<path d="M0 0 C1.17487976 -0.00852997 2.34975952 -0.01705994 3.5602417 -0.02584839 C4.85070404 -0.02494202 6.14116638 -0.02403564 7.47073364 -0.02310181 C8.84236009 -0.02908563 10.21398317 -0.03589083 11.58560181 -0.04345703 C15.31293171 -0.06113979 19.04016981 -0.06581338 22.76753759 -0.0670886 C25.87885768 -0.06898715 28.99015636 -0.07634421 32.10146821 -0.08343279 C39.44234114 -0.09972319 46.78316502 -0.10460118 54.12405396 -0.10317993 C61.69664044 -0.10197847 69.26894193 -0.12307945 76.84145629 -0.15466726 C83.34261633 -0.18081969 89.84368324 -0.19154766 96.34489548 -0.19026911 C100.22788451 -0.18975915 104.11062034 -0.19546102 107.99355698 -0.21662521 C111.64622399 -0.23599034 115.29839584 -0.2361444 118.95108032 -0.22159195 C120.92893876 -0.21850396 122.90679715 -0.2351926 124.88458252 -0.25247192 C126.06510193 -0.24408295 127.24562134 -0.23569397 128.46191406 -0.22705078 C129.48581678 -0.22814032 130.50971951 -0.22922985 131.56464958 -0.2303524 C135.16206246 0.41072392 136.82941233 1.65982765 139.35794067 4.26742554 C139.98714638 6.33862209 139.98714638 6.33862209 139.99285889 8.58711243 C140.00695801 9.443629 140.02105713 10.30014557 140.0355835 11.18261719 C140.02546234 12.11415619 140.01534119 13.04569519 140.00491333 14.00546265 C140.01367493 14.99287949 140.02243652 15.98029633 140.03146362 16.99763489 C140.05348174 20.26379253 140.03889445 23.52859771 140.02200317 26.79476929 C140.02537086 29.06394206 140.03022308 31.33311307 140.03649902 33.60227966 C140.04387389 38.35956993 140.03314555 43.11639096 140.00979614 47.87362671 C139.98132491 53.97165552 139.99769899 60.06858332 140.02765846 66.16657162 C140.04572831 70.85320832 140.03997441 75.53958414 140.0270195 80.22622871 C140.02368382 82.47450452 140.02777823 84.72280401 140.03941727 86.97105217 C140.05211837 90.11467049 140.03275685 93.25650819 140.00491333 96.3999939 C140.01503448 97.32950867 140.02515564 98.25902344 140.0355835 99.21670532 C140.01443481 100.50570992 140.01443481 100.50570992 139.99285889 101.820755 C139.99097376 102.56313384 139.98908863 103.30551268 139.98714638 104.07038784 C138.97490064 107.60491086 137.26025923 109.06521629 134.35794067 111.26742554 C131.39089063 111.75781927 129.00066276 111.94076045 126.03895569 111.89561462 C124.78721387 111.90625621 124.78721387 111.90625621 123.51018435 111.91711277 C120.71539624 111.9347077 117.92199612 111.9165808 115.12722778 111.89852905 C113.12314724 111.90366726 111.11907121 111.91094779 109.11500549 111.92021179 C103.67288798 111.93874522 98.23125962 111.92577525 92.7891624 111.90612149 C87.09752873 111.8897521 81.40592646 111.8985454 75.71427917 111.90364075 C66.15686211 111.90816324 56.59964066 111.8922812 47.04226685 111.86434937 C35.98642427 111.83228771 24.93093435 111.8323163 13.8750667 111.84956414 C3.24596154 111.86541657 -7.38301409 111.8587045 -18.01211357 111.84162712 C-22.53877642 111.83474747 -27.06533573 111.83579844 -31.59199715 111.84317207 C-36.91988879 111.8508218 -42.24737806 111.83875157 -47.57520103 111.81132317 C-49.53277008 111.80442482 -51.49037661 111.80435681 -53.44794464 111.8115387 C-56.11576784 111.82020001 -58.78233967 111.80433433 -61.45005798 111.78208923 C-62.22874947 111.79033 -63.00744096 111.79857077 -63.80972916 111.80706125 C-67.27092904 111.75361805 -69.28289215 111.52733608 -72.12134457 109.47329617 C-73.98019607 106.77694177 -74.22695249 104.59523635 -74.05123901 101.34603882 C-73.34722429 97.76967762 -71.39688024 95.06905785 -69.26705933 92.20492554 C-68.44561785 91.04817434 -67.62537694 89.89056998 -66.80612183 88.73226929 C-66.32497925 88.06050659 -65.84383667 87.3887439 -65.34811401 86.69662476 C-56.28305032 73.78915713 -47.81346676 60.44014034 -39.14205933 47.26742554 C-24.90140787 25.63448513 -24.90140787 25.63448513 -18.95065308 16.69320679 C-18.55821411 16.10261475 -18.16577515 15.51202271 -17.76144409 14.90353394 C-7.83922436 0.02568018 -7.83922436 0.02568018 0 0 Z M-9.64205933 9.26742554 C-10.11969727 9.95046249 -10.59733521 10.63349945 -11.08944702 11.3372345 C-11.53542236 12.01730057 -11.98139771 12.69736664 -12.44088745 13.39804077 C-12.95735336 14.18282303 -13.47381927 14.96760529 -14.00593567 15.77616882 C-14.55616898 16.61761948 -15.10640228 17.45907013 -15.67330933 18.32601929 C-16.54947655 19.65907356 -16.54947655 19.65907356 -17.44334412 21.01905823 C-18.69528987 22.92426051 -19.94615705 24.83017189 -21.19604492 26.73672485 C-24.47368574 31.73601761 -27.75943654 36.72997591 -31.04440308 41.72445679 C-31.69726791 42.71749817 -32.35013275 43.71053955 -33.02278137 44.7336731 C-38.14729946 52.52502361 -43.29911325 60.29768364 -48.47741699 68.05337524 C-49.69055688 69.87144085 -50.9013142 71.69107266 -52.11154175 73.51107788 C-55.55141865 78.67881298 -59.0149721 83.82608221 -62.56393433 88.91976929 C-63.14522095 89.76265503 -63.72650757 90.60554077 -64.32540894 91.47396851 C-65.3654771 92.97803831 -66.41727532 94.47410892 -67.48410034 95.95932007 C-69.47390782 98.84914847 -70.6754073 100.59776222 -70.49752808 104.16976929 C-69.82003083 106.21869734 -69.82003083 106.21869734 -68.64205933 107.26742554 C-66.04392751 107.3718695 -63.47214313 107.41075069 -60.87329102 107.40786743 C-60.04967571 107.41083855 -59.22606041 107.41380968 -58.37748706 107.41687083 C-55.59603884 107.42559675 -52.81463346 107.42706934 -50.03317261 107.42855835 C-48.04776924 107.43318376 -46.06236676 107.43820804 -44.07696533 107.44360352 C-38.66790505 107.45675591 -33.2588572 107.46317795 -27.84978342 107.46761417 C-24.47426465 107.47054023 -21.09874932 107.47464412 -17.72323227 107.47911835 C-7.17318872 107.49280053 3.37684703 107.50246375 13.92689884 107.50632024 C26.12617705 107.51080344 38.32534334 107.52836052 50.52458751 107.55732083 C59.94029023 107.57890116 69.35596138 107.58902256 78.77168858 107.59036136 C84.40174918 107.59141198 90.03170468 107.59737413 95.66173935 107.61518097 C100.95582221 107.63159877 106.24972027 107.63384791 111.54381943 107.62504196 C113.49053439 107.62426821 115.43725904 107.62865849 117.38394928 107.63850021 C120.03459129 107.65111839 122.68456873 107.6453986 125.33520508 107.63491821 C126.50003145 107.64700282 126.50003145 107.64700282 127.68838966 107.65933156 C131.72526548 107.62483257 131.72526548 107.62483257 135.33597279 105.99869251 C136.57523604 103.89931584 136.73273161 102.63346648 136.73216248 100.19966125 C136.73917679 99.37384048 136.7461911 98.54801971 136.75341797 97.69717407 C136.74577423 96.79472961 136.73813049 95.89228516 136.73025513 94.9624939 C136.73390579 94.00941849 136.73755646 93.05634308 136.74131775 92.0743866 C136.74943554 88.91850058 136.73580375 85.76312598 136.72122192 82.60726929 C136.72070351 80.41916403 136.72122049 78.23105829 136.72273254 76.04295349 C136.72264277 71.4555161 136.71220147 66.86825426 136.69412231 62.28085327 C136.67142168 56.39019123 136.67089291 50.49978552 136.67763996 44.60909176 C136.68097543 40.09077156 136.67435804 35.57251019 136.66451073 31.05420113 C136.66065215 28.88160065 136.65951322 26.70899363 136.66109657 24.5363903 C136.66146593 21.50512001 136.64888394 18.47418304 136.63259888 15.44296265 C136.63507629 14.53849396 136.63755371 13.63402527 136.6401062 12.70214844 C136.82913963 8.00143046 136.82913963 8.00143046 134.35794067 4.26742554 C131.82755497 3.95390124 131.82755497 3.95390124 128.82940674 3.99327087 C127.65445648 3.98329575 126.47950623 3.97332062 125.26895142 3.96304321 C123.97332275 3.96237854 122.67769409 3.96171387 121.34280396 3.96102905 C119.96970161 3.95341071 118.59660355 3.94498377 117.22351074 3.93580627 C113.48793438 3.91382146 109.75243988 3.90505701 106.01680613 3.89997983 C103.68401392 3.89634077 101.35124331 3.89010307 99.01845932 3.88297844 C90.88307499 3.85846955 82.74775456 3.84542907 74.61233521 3.84188843 C67.02435573 3.83825258 59.43678061 3.80835777 51.84892476 3.76648384 C45.33845825 3.73181281 38.82812594 3.71634054 32.31756771 3.71564239 C28.42726273 3.71484844 24.53736933 3.70605642 20.64715958 3.67764473 C16.98786734 3.65151822 13.32932945 3.64922759 9.66998672 3.66530037 C7.68593881 3.66798708 5.70190595 3.64589397 3.71798706 3.62310791 C2.53739716 3.63287155 1.35680725 3.64263519 0.14044189 3.6526947 C-0.88568144 3.65068337 -1.91180477 3.64867205 -2.96902275 3.64659977 C-6.61239417 4.49279053 -7.60894261 6.22085557 -9.64205933 9.26742554 Z " fill="#FDFBFA" transform="translate(400.6420593261719,604.7325744628906)"/>
<path d="M0 0 C0.99 0.33 1.98 0.66 3 1 C4.86452639 1.10242077 6.73247764 1.14634636 8.59977722 1.15821838 C9.76505447 1.1680072 10.93033173 1.17779602 12.13092041 1.18788147 C13.4105365 1.19363693 14.69015259 1.1993924 16.00854492 1.20532227 C17.36857907 1.21490167 18.72861025 1.22491179 20.08863831 1.23532104 C23.78253871 1.26236947 27.47645189 1.28337937 31.17039657 1.30332303 C35.03015076 1.32518296 38.88986558 1.35257162 42.74958801 1.37937927 C50.05932222 1.42930606 57.36907827 1.47424495 64.67885524 1.51740164 C73.00043694 1.56677412 81.32197913 1.62169221 89.64352262 1.67708123 C106.7623119 1.79090107 123.88113785 1.89774011 141 2 C141 2.33 141 2.66 141 3 C140.29008376 2.9959358 139.58016752 2.9918716 138.84873867 2.98768425 C121.56320399 2.8921687 104.27842291 2.85194745 86.99263668 2.87302971 C78.63320242 2.88189609 70.27456848 2.8721488 61.9152832 2.81835938 C54.62797996 2.77151529 47.34160618 2.75982259 40.05420023 2.7900821 C36.1962471 2.80488063 32.34010383 2.80225277 28.48234367 2.75750351 C24.84771864 2.71589861 21.21615622 2.72144872 17.58155441 2.76252174 C15.61827698 2.77262086 13.65493831 2.73330444 11.69206238 2.69233704 C5.09952692 2.74100232 5.09952692 2.74100232 -0.27759457 6.13965034 C-2.08323664 8.68717638 -3.5532499 11.23614408 -5 14 C-6.05099985 15.6088046 -7.11644314 17.2083684 -8.20288086 18.79345703 C-9.29165137 20.44728881 -10.37892056 22.10210974 -11.46484375 23.7578125 C-12.05564728 24.65584595 -12.64645081 25.55387939 -13.25515747 26.47912598 C-14.50698157 28.38211053 -15.75819131 30.28549936 -17.00881958 32.18927002 C-20.26045438 37.13872752 -23.51701269 42.08494321 -26.7734375 47.03125 C-27.40804398 47.99535797 -28.04265045 48.95946594 -28.69648743 49.95278931 C-33.463114 57.19170344 -38.25078239 64.41598318 -43.0625 71.625 C-43.97298096 72.99483032 -43.97298096 72.99483032 -44.90185547 74.39233398 C-47.77711421 78.71082377 -50.68660307 82.99968123 -53.65625 87.25390625 C-54.23238037 88.08905762 -54.80851074 88.92420898 -55.40209961 89.78466797 C-56.4683553 91.32768937 -57.5463713 92.86268668 -58.63891602 94.38720703 C-59.09967529 95.0573584 -59.56043457 95.72750977 -60.03515625 96.41796875 C-60.64435913 97.28071411 -60.64435913 97.28071411 -61.26586914 98.16088867 C-62.37978687 100.46564939 -62.37978687 100.46564939 -61 105 C38.495 105.495 38.495 105.495 140 106 C140 106.33 140 106.66 140 107 C74.33 107.33 8.66 107.66 -59 108 C40.495 108.495 40.495 108.495 142 109 C142 109.33 142 109.66 142 110 C115.47082129 110.09336647 88.94166714 110.16394152 62.41235733 110.20724869 C50.09483606 110.22788981 37.77741676 110.25604007 25.45996094 110.30175781 C14.72633223 110.34157806 3.99277735 110.36742153 -6.74092317 110.37635398 C-12.42641224 110.38157686 -18.11169003 110.39388483 -23.79711151 110.42292023 C-29.1453782 110.45001321 -34.49334601 110.45845735 -39.8416748 110.45243073 C-41.80733106 110.4535337 -43.77299702 110.46152383 -45.73859406 110.4768219 C-48.41755072 110.49665415 -51.09537138 110.49196411 -53.77435303 110.48101807 C-54.94750616 110.49849512 -54.94750616 110.49849512 -56.14435935 110.51632524 C-59.61580106 110.47785025 -61.63206059 110.2657211 -64.48138809 108.20797348 C-66.3367962 105.51031789 -66.58485897 103.32717855 -66.40917969 100.07861328 C-65.70516496 96.50225208 -63.75482092 93.80163231 -61.625 90.9375 C-60.80355852 89.78074881 -59.98331761 88.62314444 -59.1640625 87.46484375 C-58.68291992 86.79308105 -58.20177734 86.12131836 -57.70605469 85.42919922 C-48.64099099 72.52173159 -40.17140743 59.1727148 -31.5 46 C-17.26205543 24.37117161 -17.26205543 24.37117161 -11.31640625 15.4296875 C-10.92501465 14.83961914 -10.53362305 14.24955078 -10.13037109 13.64160156 C-3.11566122 3.11566122 -3.11566122 3.11566122 0 0 Z " fill="#F8CEBD" transform="translate(393,606)"/>
<path d="M0 0 C1.75371595 -0.01653531 3.50736518 -0.04379358 5.26074219 -0.08203125 C7.78892994 -0.13689851 10.3155347 -0.15869024 12.84423828 -0.17333984 C13.62462463 -0.19600922 14.40501099 -0.21867859 15.20904541 -0.24203491 C19.28400187 -0.22628021 21.14726721 0.15771628 24.38598633 2.71289062 C26.67355183 5.72156986 27.0427766 7.11572822 26.95361328 10.85009766 C26.95554687 12.22681641 26.95554687 12.22681641 26.95751953 13.63134766 C26.19695371 17.28206361 25.11078951 18.7792818 22.39111328 21.35009766 C19.48106985 22.10739185 16.63955739 22.07492305 13.64501953 22.04931641 C12.79689194 22.05647171 11.94876434 22.06362701 11.07493591 22.07099915 C9.2837733 22.07877262 7.49251589 22.07377131 5.70141602 22.05688477 C2.96529636 22.03767966 0.23427192 22.07701643 -2.50146484 22.12158203 C-4.2443064 22.12187245 -5.9871526 22.11873095 -7.72998047 22.11181641 C-8.54470322 22.12709885 -9.35942596 22.14238129 -10.19883728 22.15812683 C-15.73557105 22.04497659 -15.73557105 22.04497659 -18.2467041 20.04692078 C-21.60861306 16.14700644 -22.37236114 13.43647927 -22.11279297 8.47119141 C-21.306333 5.07655758 -19.2850264 3.43879204 -16.60888672 1.35009766 C-13.80607451 -1.45271455 -3.96252311 0.02739924 0 0 Z " fill="#FDF7F4" transform="translate(511.60888671875,737.64990234375)"/>
<path d="M0 0 C0.99 0.33 1.98 0.66 3 1 C4.86452639 1.10242077 6.73247764 1.14634636 8.59977722 1.15821838 C9.76505447 1.1680072 10.93033173 1.17779602 12.13092041 1.18788147 C13.4105365 1.19363693 14.69015259 1.1993924 16.00854492 1.20532227 C17.36857907 1.21490167 18.72861025 1.22491179 20.08863831 1.23532104 C23.78253871 1.26236947 27.47645189 1.28337937 31.17039657 1.30332303 C35.03015076 1.32518296 38.88986558 1.35257162 42.74958801 1.37937927 C50.05932222 1.42930606 57.36907827 1.47424495 64.67885524 1.51740164 C73.00043694 1.56677412 81.32197913 1.62169221 89.64352262 1.67708123 C106.7623119 1.79090107 123.88113785 1.89774011 141 2 C141 2.33 141 2.66 141 3 C140.29008376 2.9959358 139.58016752 2.9918716 138.84873867 2.98768425 C121.56320399 2.8921687 104.27842291 2.85194745 86.99263668 2.87302971 C78.63320242 2.88189609 70.27456848 2.8721488 61.9152832 2.81835938 C54.62797996 2.77151529 47.34160618 2.75982259 40.05420023 2.7900821 C36.1962471 2.80488063 32.34010383 2.80225277 28.48234367 2.75750351 C24.84771864 2.71589861 21.21615622 2.72144872 17.58155441 2.76252174 C15.61827698 2.77262086 13.65493831 2.73330444 11.69206238 2.69233704 C5.1066723 2.74104137 5.1066723 2.74104137 -0.27034187 6.12737656 C-2.07719774 8.67507597 -3.56661975 11.22801176 -5 14 C-5.63444031 14.94363403 -6.26888062 15.88726807 -6.92254639 16.85949707 C-7.41313538 17.61291382 -7.90372437 18.36633057 -8.40917969 19.14257812 C-8.9795697 20.01628052 -9.54995972 20.88998291 -10.13763428 21.79016113 C-11.02083344 23.14700012 -11.02083344 23.14700012 -11.921875 24.53125 C-13.20677344 26.49496038 -14.49193719 28.45849718 -15.77734375 30.421875 C-17.77696655 33.47936595 -19.77474468 36.5380061 -21.76806641 39.59960938 C-23.70988429 42.5803164 -25.65899683 45.55613962 -27.609375 48.53125 C-28.20627136 49.45200317 -28.80316772 50.37275635 -29.41815186 51.32141113 C-29.97593323 52.16989624 -30.5337146 53.01838135 -31.10839844 53.89257812 C-31.59580505 54.63963013 -32.08321167 55.38668213 -32.58538818 56.15637207 C-34 58 -34 58 -37 60 C-37.94835027 57.48631279 -38.18436989 56.41158383 -37.06640625 53.91586304 C-36.57011719 53.17325226 -36.07382812 52.43064148 -35.5625 51.66552734 C-35.0044165 50.8171933 -34.44633301 49.96885925 -33.87133789 49.09481812 C-32.94502563 47.72917221 -32.94502563 47.72917221 -32 46.3359375 C-31.0572522 44.91506332 -31.0572522 44.91506332 -30.09545898 43.46548462 C-28.07536343 40.42731661 -26.0378649 37.40127024 -24 34.375 C-22.6564228 32.35882501 -21.31396151 30.34190591 -19.97265625 28.32421875 C-3.2998175 3.2998175 -3.2998175 3.2998175 0 0 Z " fill="#ECCDC5" transform="translate(393,606)"/>
<path d="M0 0 C0.66 0.99 1.32 1.98 2 3 C1.67 3.99 1.34 4.98 1 6 C67.33 6 133.66 6 202 6 C202 6.33 202 6.66 202 7 C101.515 7.495 101.515 7.495 -1 8 C-1.33 6.35 -1.66 4.7 -2 3 C-1.34 2.01 -0.68 1.02 0 0 Z " fill="#AC3509" transform="translate(332,703)"/>
<path d="M0 0 C4.44804477 8.59955322 1.92546202 15.58506504 -0.55078125 24.47802734 C-1.79301138 29.00508843 -2.53415573 33.34155729 -3 38 C-3.495 38.495 -3.495 38.495 -4 39 C-4.27196736 40.44813792 -4.49019252 41.90648026 -4.68359375 43.3671875 C-4.80669922 44.25277344 -4.92980469 45.13835937 -5.05664062 46.05078125 C-5.30944265 47.92540551 -5.5594678 49.80040646 -5.80664062 51.67578125 C-5.93103516 52.56394531 -6.05542969 53.45210938 -6.18359375 54.3671875 C-6.29243896 55.18300293 -6.40128418 55.99881836 -6.51342773 56.83935547 C-7 59 -7 59 -9 62 C-9.88459928 41.55592782 -4.99974754 19.73385203 0 0 Z " fill="#FB5527" transform="translate(312,442)"/>
<path d="M0 0 C1.98 0.66 3.96 1.32 6 2 C5.71655273 3.90234375 5.71655273 3.90234375 5 6 C2.32509157 7.20627212 -0.15345833 8.13557152 -2.9375 9 C-4.49922759 9.51532463 -6.06042946 10.03224532 -7.62109375 10.55078125 C-8.3776123 10.79779785 -9.13413086 11.04481445 -9.91357422 11.29931641 C-12.48578522 12.16314107 -14.99301907 13.15053958 -17.5 14.1875 C-20.62554415 15.4590889 -23.75745462 16.68294788 -26.9375 17.8125 C-27.64777344 18.06644531 -28.35804688 18.32039062 -29.08984375 18.58203125 C-31 19 -31 19 -34 18 C-33.04222656 17.52691406 -32.08445312 17.05382812 -31.09765625 16.56640625 C-23.53959664 12.81852098 -16.02229647 9.00278637 -8.5625 5.0625 C-7.82330322 4.67328369 -7.08410645 4.28406738 -6.32250977 3.88305664 C-2.94918929 2.24670612 -2.94918929 2.24670612 0 0 Z " fill="#FD5418" transform="translate(916,939)"/>
<path d="M0 0 C0.68707555 2.49064888 1 4.37886292 1 7 C1.99 7 2.98 7 4 7 C5.32856028 10.6582453 4.64879015 12.81873498 3.34765625 16.421875 C2.98349609 17.44667969 2.61933594 18.47148437 2.24414062 19.52734375 C1.85419922 20.59082031 1.46425781 21.65429688 1.0625 22.75 C0.67642578 23.82894531 0.29035156 24.90789062 -0.10742188 26.01953125 C-1.0621254 28.68327196 -2.02660643 31.34304418 -3 34 C-5.98252026 25.05243922 -4.90318382 18.43724577 -2.5 9.5 C-2.26152344 8.5821875 -2.02304687 7.664375 -1.77734375 6.71875 C-1.19349081 4.47675469 -0.60092033 2.23746932 0 0 Z " fill="#FB571B" transform="translate(318,418)"/>
<path d="M0 0 C4.84659077 0.59104765 8.60748167 1.97944157 13 4 C13 4.33 13 4.66 13 5 C-23.63 5 -60.26 5 -98 5 C-98 4.67 -98 4.34 -98 4 C-48.995 3.505 -48.995 3.505 1 3 C0.505 1.515 0.505 1.515 0 0 Z " fill="#FC4F15" transform="translate(619,907)"/>
<path d="M0 0 C0.495 0.99 0.495 0.99 1 2 C0.34 2.33 -0.32 2.66 -1 3 C-0.67 3.66 -0.34 4.32 0 5 C-4.07490901 5.42921817 -8.15002464 5.85641232 -12.2253418 6.28173828 C-13.61146772 6.42669051 -14.9975361 6.57219407 -16.38354492 6.71826172 C-18.37663779 6.92821131 -20.36995697 7.13600901 -22.36328125 7.34375 C-23.56251221 7.46943359 -24.76174316 7.59511719 -25.99731445 7.72460938 C-29 8 -29 8 -32 8 C-32 7.34 -32 6.68 -32 6 C-28.08868222 4.97265056 -24.17435128 3.95781157 -20.25683594 2.9543457 C-18.92522453 2.61139907 -17.59447817 2.26507487 -16.26464844 1.9152832 C-14.35063016 1.41246002 -12.43315352 0.92286005 -10.515625 0.43359375 C-9.36352539 0.13509521 -8.21142578 -0.16340332 -7.02441406 -0.47094727 C-4.17704512 -0.96902997 -2.63090734 -1.13579141 0 0 Z " fill="#FD6532" transform="translate(113,884)"/>
<path d="M0 0 C-0.33 0.99 -0.66 1.98 -1 3 C4.94 3.33 10.88 3.66 17 4 C17 4.33 17 4.66 17 5 C2.48 5.33 -12.04 5.66 -27 6 C-23.98836146 4.49418073 -22.00385881 3.63670588 -18.84765625 2.9296875 C-17.68266602 2.66865234 -17.68266602 2.66865234 -16.49414062 2.40234375 C-15.29047852 2.14130859 -15.29047852 2.14130859 -14.0625 1.875 C-13.26392578 1.69324219 -12.46535156 1.51148438 -11.64257812 1.32421875 C-7.69989272 0.45532536 -4.06472692 -0.24634709 0 0 Z " fill="#FD5F29" transform="translate(110,816)"/>
<path d="M0 0 C-0.66666667 1.33333333 -1.33333333 2.66666667 -2 4 C-2.27013916 4.6705542 -2.54027832 5.3411084 -2.81860352 6.03198242 C-4.29910879 8.4982674 -5.32486072 8.85508347 -8.02734375 9.73828125 C-8.81947266 10.00060547 -9.61160156 10.26292969 -10.42773438 10.53320312 C-11.25595703 10.79037109 -12.08417969 11.04753906 -12.9375 11.3125 C-14.1740332 11.72725586 -14.1740332 11.72725586 -15.43554688 12.15039062 C-21.5922146 14.13592847 -21.5922146 14.13592847 -25 13 C-21.21225306 10.82642556 -17.41917971 8.6623228 -13.625 6.5 C-12.54476562 5.87996094 -11.46453125 5.25992187 -10.3515625 4.62109375 C-9.3203125 4.03457031 -8.2890625 3.44804688 -7.2265625 2.84375 C-6.27346191 2.29912109 -5.32036133 1.75449219 -4.33837891 1.19335938 C-2 0 -2 0 0 0 Z " fill="#FB5319" transform="translate(113,1072)"/>
<path d="M0 0 C0.33 0 0.66 0 1 0 C1 13.53 1 27.06 1 41 C0.01 41 -0.98 41 -2 41 C-2 29.45 -2 17.9 -2 6 C-1.67 6 -1.34 6 -1 6 C-0.67 4.02 -0.34 2.04 0 0 Z " fill="#FDE4DB" transform="translate(1163,529)"/>
<path d="M0 0 C-0.33 0.66 -0.66 1.32 -1 2 C1.97 2.495 1.97 2.495 5 3 C5 3.33 5 3.66 5 4 C1.61363691 4.74515899 -1.61943103 5.16770563 -5.08203125 5.31640625 C-6.01337891 5.35830078 -6.94472656 5.40019531 -7.90429688 5.44335938 C-8.86400391 5.48267578 -9.82371094 5.52199219 -10.8125 5.5625 C-11.79154297 5.60568359 -12.77058594 5.64886719 -13.77929688 5.69335938 C-16.18607027 5.7990226 -18.59293983 5.90112327 -21 6 C-20 4 -20 4 -16.54296875 2.67578125 C-15.09373993 2.21314795 -13.64175514 1.75908229 -12.1875 1.3125 C-11.46240234 1.07466797 -10.73730469 0.83683594 -9.99023438 0.59179688 C-6.23364064 -0.58020538 -3.7522388 -1.18998829 0 0 Z " fill="#FC7649" transform="translate(426,537)"/>
<path d="M0 0 C1.11375 0.556875 1.11375 0.556875 2.25 1.125 C-1.54882412 4.56153844 -6.03932476 5.81300779 -10.8125 7.375 C-11.62783203 7.65601563 -12.44316406 7.93703125 -13.28320312 8.2265625 C-14.45979492 8.61714844 -14.45979492 8.61714844 -15.66015625 9.015625 C-16.37308838 9.25313477 -17.08602051 9.49064453 -17.82055664 9.73535156 C-19.75 10.125 -19.75 10.125 -22.75 9.125 C-17.41666667 6.45833333 -12.08333333 3.79166667 -6.75 1.125 C-6.06647461 0.73683105 -5.38294922 0.34866211 -4.67871094 -0.05126953 C-2.75 -0.875 -2.75 -0.875 0 0 Z " fill="#FD5721" transform="translate(904.75,947.875)"/>
<path d="M0 0 C0.33 0 0.66 0 1 0 C1.1678363 6.39021392 1.32779785 12.78058948 1.48217773 19.17114258 C1.53568301 21.34696968 1.59101865 23.52275255 1.64819336 25.69848633 C1.72986715 28.81842506 1.80504532 31.93846153 1.87890625 35.05859375 C1.91945885 36.52733192 1.91945885 36.52733192 1.96083069 38.02574158 C1.98092697 38.92659988 2.00102325 39.82745819 2.02172852 40.75561523 C2.04171402 41.55281479 2.06169952 42.35001434 2.08229065 43.17137146 C2 45 2 45 1 46 C0.76924918 47.34747084 0.58846937 48.70377565 0.4375 50.0625 C0.2209375 52.0115625 0.2209375 52.0115625 0 54 C-0.33 54 -0.66 54 -1 54 C-1.08108324 42.17873904 -0.8252242 30.3786156 -0.5 18.5625 C-0.45164099 16.75195798 -0.40346282 14.94141111 -0.35546875 13.13085938 C-0.23905737 8.75384783 -0.1202219 4.37690847 0 0 Z " fill="#FC7849" transform="translate(1114,566)"/>
<path d="M0 0 C0 0.33 0 0.66 0 1 C-3.61216106 1.79252077 -7.12935077 2.23269668 -10.81640625 2.5 C-11.91017578 2.5825 -13.00394531 2.665 -14.13085938 2.75 C-16.42250544 2.91694974 -18.71417221 3.08361545 -21.00585938 3.25 C-22.64458008 3.37375 -22.64458008 3.37375 -24.31640625 3.5 C-25.80829468 3.60828125 -25.80829468 3.60828125 -27.33032227 3.71875 C-29.65640976 3.96380284 -31.74264305 4.42353018 -34 5 C-35.754132 4.91760895 -37.50611925 4.76901219 -39.25 4.5625 C-40.14203125 4.46066406 -41.0340625 4.35882813 -41.953125 4.25390625 C-42.62859375 4.17011719 -43.3040625 4.08632813 -44 4 C-44 3.67 -44 3.34 -44 3 C-29.37360461 1.36247965 -14.74072102 -0.26322716 0 0 Z " fill="#FC8F65" transform="translate(625,503)"/>
<path d="M0 0 C2.91918138 5.64375068 2.91207519 8.81815706 2 15 C1.01 15 0.02 15 -1 15 C-1.66 15.66 -2.32 16.32 -3 17 C-2.54775239 11.08507728 -1.8417395 5.64800112 0 0 Z " fill="#FB5F2D" transform="translate(312,442)"/>
<path d="M0 0 C0.33 0 0.66 0 1 0 C1.38164435 11.42106041 0.52100609 21.85055043 -2 33 C-2.33 33 -2.66 33 -3 33 C-3.48109344 21.88139608 -1.57946011 10.97084456 0 0 Z " fill="#FC9472" transform="translate(306,471)"/>
<path d="M0 0 C0 0.99 0 1.98 0 3 C-5.61 3 -11.22 3 -17 3 C-12.05861701 -1.94138299 -6.34133545 -1.04279739 0 0 Z " fill="#FD551F" transform="translate(184,752)"/>
<path d="M0 0 C-0.66 0 -1.32 0 -2 0 C-2 0.99 -2 1.98 -2 3 C-0.68 3.66 0.64 4.32 2 5 C-2.95 5 -7.9 5 -13 5 C-13 4.34 -13 3.68 -13 3 C-11.5903653 2.29819469 -10.17192359 1.61406042 -8.75 0.9375 C-7.96109375 0.55464844 -7.1721875 0.17179688 -6.359375 -0.22265625 C-3.74006478 -1.08564091 -2.55144824 -0.93045933 0 0 Z " fill="#FDD6C6" transform="translate(773,950)"/>
<path d="M0 0 C0.66 0 1.32 0 2 0 C3.23681641 1.56054688 3.23681641 1.56054688 4.6015625 3.71875 C5.09140625 4.48574219 5.58125 5.25273437 6.0859375 6.04296875 C6.59382813 6.85378906 7.10171875 7.66460937 7.625 8.5 C8.140625 9.31082031 8.65625 10.12164062 9.1875 10.95703125 C10.46470066 12.9674397 11.73515437 14.98180397 13 17 C12.34 17.99 11.68 18.98 11 20 C10.2265625 18.6078125 10.2265625 18.6078125 9.4375 17.1875 C6.94138993 12.79002088 4.16497406 8.58110545 1.390625 4.35546875 C0 2 0 2 0 0 Z " fill="#FC4C12" transform="translate(1079,286)"/>
<path d="M0 0 C0.33 0 0.66 0 1 0 C1.02699725 2.27076842 1.04639453 4.54162821 1.0625 6.8125 C1.07410156 8.07707031 1.08570313 9.34164062 1.09765625 10.64453125 C1 14 1 14 0 17 C-0.66 17 -1.32 17 -2 17 C-1.67 18.98 -1.34 20.96 -1 23 C-1.99 23.66 -2.98 24.32 -4 25 C-3.24595285 16.55467195 -1.62171958 8.31258777 0 0 Z " fill="#FB7241" transform="translate(1108,654)"/>
<path d="M0 0 C0.886875 0.391875 1.77375 0.78375 2.6875 1.1875 C2.3575 2.5075 2.0275 3.8275 1.6875 5.1875 C-0.6225 5.8475 -2.9325 6.5075 -5.3125 7.1875 C-4.9825 6.1975 -4.6525 5.2075 -4.3125 4.1875 C-5.6325 3.5275 -6.9525 2.8675 -8.3125 2.1875 C-5.09279771 -0.27462528 -4.04623082 -0.99247171 0 0 Z " fill="#FB531C" transform="translate(919.3125,939.8125)"/>
<path d="M0 0 C0.66 0.99 1.32 1.98 2 3 C1.67 3.99 1.34 4.98 1 6 C8.26 6 15.52 6 23 6 C23 6.33 23 6.66 23 7 C15.08 7.33 7.16 7.66 -1 8 C-1.33 6.35 -1.66 4.7 -2 3 C-1.34 2.01 -0.68 1.02 0 0 Z " fill="#AF3C16" transform="translate(332,703)"/>
<path d="M0 0 C0.33 0.66 0.66 1.32 1 2 C1.66 2 2.32 2 3 2 C1.6302836 5.99500618 -0.25722422 8.80009492 -3 12 C-3 11.34 -3 10.68 -3 10 C-3.99 9.67 -4.98 9.34 -6 9 C-4.02 6.03 -2.04 3.06 0 0 Z " fill="#F8E1D6" transform="translate(336,690)"/>
<path d="M0 0 C1.81612488 0.95144598 3.62781081 1.91136933 5.4375 2.875 C6.44683594 3.40867187 7.45617188 3.94234375 8.49609375 4.4921875 C11 6 11 6 12 8 C2.82713348 6.66958425 2.82713348 6.66958425 -0.625 3.875 C-1.07875 3.25625 -1.5325 2.6375 -2 2 C-1.34 1.34 -0.68 0.68 0 0 Z " fill="#FC561F" transform="translate(1154,1078)"/>
<path d="M0 0 C-1.12436254 3.37308761 -2.07342733 4.15123097 -4.75 6.375 C-7.99668841 9.12534216 -11.03905179 11.94652216 -14 15 C-14.66 14.67 -15.32 14.34 -16 14 C-4.30964467 0 -4.30964467 0 0 0 Z " fill="#FC561F" transform="translate(387,844)"/>
<path d="M0 0 C1.485 0.99 1.485 0.99 3 2 C2.34 5.96 1.68 9.92 1 14 C0.34 14 -0.32 14 -1 14 C-1.02705729 12.22925083 -1.04642195 10.45838289 -1.0625 8.6875 C-1.07410156 7.70136719 -1.08570313 6.71523438 -1.09765625 5.69921875 C-1 3 -1 3 0 0 Z " fill="#FB4410" transform="translate(310,456)"/>
<path d="M0 0 C4.84659077 0.59104765 8.60748167 1.97944157 13 4 C13 4.33 13 4.66 13 5 C9.04 5 5.08 5 1 5 C0.67 3.35 0.34 1.7 0 0 Z " fill="#FD5C2B" transform="translate(619,907)"/>
<path d="M0 0 C0.33 1.32 0.66 2.64 1 4 C-0.93356782 4.69848264 -2.87202298 5.38344814 -4.8125 6.0625 C-5.89144531 6.44535156 -6.97039062 6.82820313 -8.08203125 7.22265625 C-11 8 -11 8 -14 7 C-12.04480616 5.82807953 -10.0857461 4.6626071 -8.125 3.5 C-7.03445312 2.8503125 -5.94390625 2.200625 -4.8203125 1.53125 C-2 0 -2 0 0 0 Z " fill="#FD5722" transform="translate(102,1078)"/>
<path d="M0 0 C0.99 0 1.98 0 3 0 C2.43393721 4.69023454 1.81462495 9.34500026 1 14 C-1.36574234 10.4513865 -1.10865265 9.4235475 -0.625 5.3125 C-0.51414062 4.31863281 -0.40328125 3.32476563 -0.2890625 2.30078125 C-0.19367188 1.54152344 -0.09828125 0.78226563 0 0 Z " fill="#FC4B12" transform="translate(1150,635)"/>
<path d="M0 0 C0.33 0 0.66 0 1 0 C1.19397476 1.97854258 1.38001321 3.9578648 1.5625 5.9375 C1.66691406 7.03964844 1.77132813 8.14179687 1.87890625 9.27734375 C1.91886719 10.17582031 1.95882813 11.07429687 2 12 C1.67 12.33 1.34 12.66 1 13 C0.76924918 14.34747084 0.58846937 15.70377565 0.4375 17.0625 C0.293125 18.361875 0.14875 19.66125 0 21 C-0.33 21 -0.66 21 -1 21 C-1.02719556 18.62492145 -1.04693247 16.25016036 -1.0625 13.875 C-1.07087891 13.20984375 -1.07925781 12.5446875 -1.08789062 11.859375 C-1.10782292 7.79318646 -0.78890161 3.9879908 0 0 Z " fill="#FB6A3A" transform="translate(1114,599)"/>
<path d="M0 0 C4.62 2.31 9.24 4.62 14 7 C14 7.33 14 7.66 14 8 C9.62756771 8.37815631 7.34852855 7.34305827 3.6875 5 C2.80449219 4.443125 1.92148437 3.88625 1.01171875 3.3125 C0.34785156 2.879375 -0.31601562 2.44625 -1 2 C-0.67 1.34 -0.34 0.68 0 0 Z " fill="#FC4D11" transform="translate(934,153)"/>
<path d="M0 0 C4.29 0 8.58 0 13 0 C13 0.66 13 1.32 13 2 C14.98 2 16.96 2 19 2 C19 2.33 19 2.66 19 3 C12.4294834 3.24794402 6.43028541 2.32388229 0 1 C0 0.67 0 0.34 0 0 Z " fill="#FB6938" transform="translate(902,1020)"/>
<path d="M0 0 C0.79921875 0.20367188 1.5984375 0.40734375 2.421875 0.6171875 C3.02515625 0.78476562 3.6284375 0.95234375 4.25 1.125 C4.25 1.455 4.25 1.785 4.25 2.125 C-3.38434903 4.62084488 -3.38434903 4.62084488 -6.75 3.125 C-7.41 2.465 -8.07 1.805 -8.75 1.125 C-5.45750312 -0.91393155 -3.7130065 -0.98285466 0 0 Z " fill="#FDEAE4" transform="translate(413.75,970.875)"/>
<path d="M0 0 C0.99 1.32 1.98 2.64 3 4 C1.02 6.97 1.02 6.97 -1 10 C-1.33 9.34 -1.66 8.68 -2 8 C-2.66 8 -3.32 8 -4 8 C-2.87548273 5.0280615 -1.77706209 2.66559313 0 0 Z " fill="#F9E6DD" transform="translate(354,663)"/>
<path d="M0 0 C1.5 1.1875 1.5 1.1875 3 3 C3.1875 5.6875 3.1875 5.6875 3 8 C2.01 8.495 2.01 8.495 1 9 C1.061875 9.9075 1.12375 10.815 1.1875 11.75 C0.97898296 15.36429542 0.23586253 16.30053343 -2 19 C-1.45118943 12.64780958 -0.83488387 6.32126362 0 0 Z " fill="#FDC4AD" transform="translate(1156,613)"/>
<path d="M0 0 C0 0.33 0 0.66 0 1 C-0.90363281 1.13277344 -1.80726563 1.26554687 -2.73828125 1.40234375 C-4.50751953 1.66724609 -4.50751953 1.66724609 -6.3125 1.9375 C-8.07013672 2.19853516 -8.07013672 2.19853516 -9.86328125 2.46484375 C-13.01641403 2.92093031 -13.01641403 2.92093031 -16 4 C-18.3406065 3.72230092 -20.67624308 3.39460023 -23 3 C-23 2.67 -23 2.34 -23 2 C-20.29215006 1.66227261 -17.58383004 1.32969313 -14.875 1 C-14.11445312 0.90460938 -13.35390625 0.80921875 -12.5703125 0.7109375 C-8.35090048 0.20169812 -4.25995656 -0.10888068 0 0 Z " fill="#FA794E" transform="translate(577,507)"/>
<path d="M0 0 C-2.60542016 1.73694677 -4.58342775 2.69100448 -7.5 3.6875 C-8.2734375 3.95949219 -9.046875 4.23148438 -9.84375 4.51171875 C-12 5 -12 5 -15 4 C-13.4470724 3.12855131 -11.88214564 2.27846343 -10.3125 1.4375 C-9.44238281 0.96183594 -8.57226562 0.48617187 -7.67578125 -0.00390625 C-4.61671247 -1.14268368 -3.08136961 -0.92718689 0 0 Z " fill="#FE8761" transform="translate(897,953)"/>
<path d="M0 0 C0.33 0.66 0.66 1.32 1 2 C-4.34629602 3.0024305 -8.62374766 2.84888195 -14 2 C-14 1.67 -14 1.34 -14 1 C-9.27685687 0.22887459 -4.78478822 -0.09764874 0 0 Z " fill="#FC6E3C" transform="translate(671,109)"/>
<path d="M0 0 C0.66 0.33 1.32 0.66 2 1 C-1.34592082 4.76416092 -5.39218533 7.92790265 -10 10 C-10.99 9.67 -11.98 9.34 -13 9 C-11.71802734 8.15115234 -11.71802734 8.15115234 -10.41015625 7.28515625 C-9.2942305 6.54433159 -8.17834728 5.80344286 -7.0625 5.0625 C-6.49853516 4.68931641 -5.93457031 4.31613281 -5.35351562 3.93164062 C-2.53966389 2.14034283 -2.53966389 2.14034283 0 0 Z " fill="#FEDCD0" transform="translate(985,907)"/>
<path d="M0 0 C1.05543251 3.18769143 0.97424908 4.94786631 -0.25 8.0625 C-0.62898438 9.06990234 -0.62898438 9.06990234 -1.015625 10.09765625 C-2.0785986 12.15189491 -3.29068058 13.45873165 -5 15 C-3.60961435 9.86626838 -1.91539047 4.96260257 0 0 Z " fill="#FDE4D8" transform="translate(334,399)"/>
<path d="M0 0 C0 0.99 0 1.98 0 3 C-2.98055586 5.42603384 -5.00323092 6.91332443 -8.875 7.25 C-9.57625 7.1675 -10.2775 7.085 -11 7 C-7.54319097 4.23455278 -3.85658398 2.15078722 0 0 Z " fill="#FC561B" transform="translate(525,159)"/>
<path d="M0 0 C-1 3 -1 3 -3.3125 4.1875 C-6 5 -6 5 -10 5 C-10 4.34 -10 3.68 -10 3 C-3.375 0 -3.375 0 0 0 Z " fill="#FC5E25" transform="translate(582,133)"/>
<path d="M0 0 C0.66 0 1.32 0 2 0 C0.7508258 3.45925163 -0.67527795 6.14693203 -3 9 C-3.99 8.67 -4.98 8.34 -6 8 C-5.04956626 6.66102417 -4.08940853 5.32894573 -3.125 4 C-2.59132813 3.2575 -2.05765625 2.515 -1.5078125 1.75 C-1.01023437 1.1725 -0.51265625 0.595 0 0 Z " fill="#FB5018" transform="translate(295,698)"/>
<path d="M0 0 C1.12377697 3.30435084 0.89554742 5.0506862 -0.4375 8.25 C-0.72496094 8.95640625 -1.01242187 9.6628125 -1.30859375 10.390625 C-1.53675781 10.92171875 -1.76492188 11.4528125 -2 12 C-3.10868317 8.67395049 -3.54177532 5.46941546 -4 2 C-2.68 2.33 -1.36 2.66 0 3 C0 2.01 0 1.02 0 0 Z " fill="#F73E07" transform="translate(317,440)"/>
<path d="M0 0 C-3.00617269 3.00617269 -5.82381598 2.59585316 -10 3 C-10 2.34 -10 1.68 -10 1 C-3.71428571 -1.42857143 -3.71428571 -1.42857143 0 0 Z " fill="#FC5217" transform="translate(318,996)"/>
<path d="M0 0 C0.33 0 0.66 0 1 0 C1.25 6.625 1.25 6.625 -1 10 C-0.67 10.66 -0.34 11.32 0 12 C-1.98 12.99 -1.98 12.99 -4 14 C-3.52188823 12.22888156 -3.0424722 10.45811517 -2.5625 8.6875 C-2.29566406 7.70136719 -2.02882813 6.71523438 -1.75390625 5.69921875 C-1.21920575 3.78482474 -0.62855462 1.88566385 0 0 Z " fill="#FDCFBD" transform="translate(1139,689)"/>
<path d="M0 0 C0.33 0 0.66 0 1 0 C1.24959784 2.0809844 1.47394907 4.16500812 1.6875 6.25 C1.81511719 7.41015625 1.94273438 8.5703125 2.07421875 9.765625 C1.99254989 13.32466794 1.42472438 14.48177725 -1 17 C-1.12036664 11.22240116 -0.8320582 5.72040011 0 0 Z " fill="#FB7346" transform="translate(1112,622)"/>
<path d="M0 0 C4.55384615 -0.36923077 4.55384615 -0.36923077 6.8125 1.5 C7.204375 1.995 7.59625 2.49 8 3 C-0.03571429 5.27678571 -0.03571429 5.27678571 -4 4 C-3.01 3.34 -2.02 2.68 -1 2 C-0.67 1.34 -0.34 0.68 0 0 Z " fill="#FDCFBB" transform="translate(469,520)"/>
<path d="M0 0 C7.5 -0.375 7.5 -0.375 12 3 C8.37 3 4.74 3 1 3 C0.67 2.01 0.34 1.02 0 0 Z " fill="#FDE5DA" transform="translate(739,1004)"/>
<path d="M0 0 C0.66 0.33 1.32 0.66 2 1 C1.67 1.33 1.34 1.66 1 2 C3.97 2.495 3.97 2.495 7 3 C7 3.33 7 3.66 7 4 C2.38 4.33 -2.24 4.66 -7 5 C-2 1 -2 1 0 0 Z " fill="#FDE3D5" transform="translate(466,961)"/>
<path d="M0 0 C-0.639375 0.103125 -1.27875 0.20625 -1.9375 0.3125 C-2.618125 0.539375 -3.29875 0.76625 -4 1 C-4.33 1.99 -4.66 2.98 -5 4 C-7.31 4 -9.62 4 -12 4 C-11 2 -11 2 -9.00390625 1.11328125 C-7.79541016 0.71689453 -7.79541016 0.71689453 -6.5625 0.3125 C-5.75941406 0.04050781 -4.95632813 -0.23148438 -4.12890625 -0.51171875 C-2 -1 -2 -1 0 0 Z M-9 4 C-7 5 -7 5 -7 5 Z " fill="#FC7241" transform="translate(634,936)"/>
<path d="M0 0 C0.8971875 0.309375 0.8971875 0.309375 1.8125 0.625 C-1.79707611 3.9160841 -4.31387153 5.17163921 -9.1875 5.625 C-3.21691176 -0.55147059 -3.21691176 -0.55147059 0 0 Z " fill="#FC531D" transform="translate(942.1875,924.375)"/>
<path d="M0 0 C0.99 0.66 1.98 1.32 3 2 C-0.65333143 4.63379708 -3.48521602 6.46884894 -8 7 C-5.42215154 4.35247996 -3.08351902 2.05567935 0 0 Z " fill="#FC531B" transform="translate(964,907)"/>
<path d="M0 0 C0.66 0 1.32 0 2 0 C0.78065514 4.03321763 -0.55954927 7.54269479 -3 11 C-3.66 11 -4.32 11 -5 11 C-3.55049545 7.2089881 -1.84827434 3.6125362 0 0 Z " fill="#FDE6DD" transform="translate(1111,758)"/>
<path d="M0 0 C1.65 0.99 3.3 1.98 5 3 C4.01 3.99 3.02 4.98 2 6 C0.35 4.68 -1.3 3.36 -3 2 C-2.01 1.34 -1.02 0.68 0 0 Z " fill="#FAEFEB" transform="translate(534,605)"/>
<path d="M0 0 C0 0.66 0 1.32 0 2 C1.65 2 3.3 2 5 2 C5 2.33 5 2.66 5 3 C-0.61 2.67 -6.22 2.34 -12 2 C-12 1.67 -12 1.34 -12 1 C-10.37512529 0.83211627 -8.75009558 0.66573213 -7.125 0.5 C-6.22007812 0.4071875 -5.31515625 0.314375 -4.3828125 0.21875 C-2 0 -2 0 0 0 Z " fill="#FC7D55" transform="translate(563,541)"/>
<path d="M0 0 C0.99 0 1.98 0 3 0 C2.67 1.65 2.34 3.3 2 5 C0.68 5 -0.64 5 -2 5 C-1.34 3.35 -0.68 1.7 0 0 Z " fill="#FBF2ED" transform="translate(349,671)"/>
<path d="M0 0 C-0.33 0.99 -0.66 1.98 -1 3 C-3.64 3 -6.28 3 -9 3 C-9 2.34 -9 1.68 -9 1 C-5.8035914 -0.06546953 -3.34252724 -0.07427838 0 0 Z " fill="#FE5220" transform="translate(421,538)"/>
<path d="M0 0 C0.8971875 0.5259375 0.8971875 0.5259375 1.8125 1.0625 C-2.61826923 3.15480769 -2.61826923 3.15480769 -5.5 2.6875 C-6.056875 2.48125 -6.61375 2.275 -7.1875 2.0625 C-4.72093412 -0.40406588 -3.34389711 -1.43309876 0 0 Z M-8.1875 3.0625 C-6.1875 4.0625 -6.1875 4.0625 -6.1875 4.0625 Z " fill="#FC4F10" transform="translate(593.1875,129.9375)"/>
<path d="M0 0 C1.65 0 3.3 0 5 0 C4.25 1.9375 4.25 1.9375 3 4 C0.875 4.75 0.875 4.75 -1 5 C-0.67 3.35 -0.34 1.7 0 0 Z " fill="#F6440B" transform="translate(911,943)"/>
<path d="M0 0 C-0.99 0.495 -0.99 0.495 -2 1 C-1.67 1.66 -1.34 2.32 -1 3 C-2.98 3 -4.96 3 -7 3 C-7 2.01 -7 1.02 -7 0 C-3.86650268 -1.04449911 -3.01031744 -0.93423645 0 0 Z " fill="#FC4506" transform="translate(109,886)"/>
<path d="M0 0 C0.33 1.32 0.66 2.64 1 4 C0.01 5.485 0.01 5.485 -1 7 C-1.66 7 -2.32 7 -3 7 C-3.33 7.99 -3.66 8.98 -4 10 C-4.66 9.67 -5.32 9.34 -6 9 C-4.02 6.03 -2.04 3.06 0 0 Z " fill="#B53B15" transform="translate(383,626)"/>
<path d="M0 0 C-2.27795022 2.27795022 -3.93787293 3.05219877 -7 4 C-9.1640625 3.55078125 -9.1640625 3.55078125 -11 3 C-9.73581754 2.30034557 -8.46334598 1.61565237 -7.1875 0.9375 C-6.47980469 0.55464844 -5.77210938 0.17179688 -5.04296875 -0.22265625 C-3 -1 -3 -1 0 0 Z " fill="#FC551B" transform="translate(543,152)"/>
<path d="M0 0 C-0.99 0 -1.98 0 -3 0 C-3 0.66 -3 1.32 -3 2 C-5.3125 2.625 -5.3125 2.625 -8 3 C-8.99 2.34 -9.98 1.68 -11 1 C-3.57142857 -1.42857143 -3.57142857 -1.42857143 0 0 Z " fill="#FC6631" transform="translate(125,881)"/>
<path d="M0 0 C0.66 0.33 1.32 0.66 2 1 C0.8141763 4.37503669 -0.27573689 6.64722731 -3 9 C-3.33 8.01 -3.66 7.02 -4 6 C-2.0625 2.8125 -2.0625 2.8125 0 0 Z " fill="#B43A13" transform="translate(373,641)"/>
<path d="M0 0 C1.98 0.99 3.96 1.98 6 3 C6 4.32 6 5.64 6 7 C2.63279613 5.60667426 1.0140476 4.0210714 -1 1 C-0.67 0.67 -0.34 0.34 0 0 Z " fill="#FB5D23" transform="translate(595,304)"/>
<path d="M0 0 C0.33 1.32 0.66 2.64 1 4 C-0.65 4.33 -2.3 4.66 -4 5 C-4 3.68 -4 2.36 -4 1 C-2 0 -2 0 0 0 Z " fill="#FC480F" transform="translate(106,1076)"/>
<path d="M0 0 C0 0.99 0 1.98 0 3 C1.32 3.33 2.64 3.66 4 4 C2 5 2 5 0.0546875 4.44140625 C-0.66460937 4.15136719 -1.38390625 3.86132812 -2.125 3.5625 C-2.84945313 3.27503906 -3.57390625 2.98757813 -4.3203125 2.69140625 C-5.15175781 2.34916016 -5.15175781 2.34916016 -6 2 C-2.25 0 -2.25 0 0 0 Z " fill="#FB7444" transform="translate(405,965)"/>
<path d="M0 0 C0.66 0.33 1.32 0.66 2 1 C1.6875 2.9375 1.6875 2.9375 1 5 C0.01 5.33 -0.98 5.66 -2 6 C-2 2 -2 2 0 0 Z " fill="#F54E11" transform="translate(474,951)"/>
<path d="M0 0 C2.625 0.9375 2.625 0.9375 5 2 C3.68 2.99 2.36 3.98 1 5 C-1 4 -1 4 -2 1 C-1.34 0.67 -0.68 0.34 0 0 Z " fill="#FC6832" transform="translate(902,947)"/>
<path d="M0 0 C0.99 0.33 1.98 0.66 3 1 C0.03 3.475 0.03 3.475 -3 6 C-3.66 5.34 -4.32 4.68 -5 4 C-2.6875 1.9375 -2.6875 1.9375 0 0 Z " fill="#FB5019" transform="translate(675,910)"/>
<path d="M0 0 C0.33 1.32 0.66 2.64 1 4 C-0.9375 6.75 -0.9375 6.75 -3 9 C-3.66 8.67 -4.32 8.34 -5 8 C-3.35 5.36 -1.7 2.72 0 0 Z " fill="#B13815" transform="translate(367,650)"/>
<path d="M0 0 C0 0.66 0 1.32 0 2 C-1.98 2.66 -3.96 3.32 -6 4 C-6.66 3.34 -7.32 2.68 -8 2 C-4.91190305 0.23537317 -3.76687864 0 0 0 Z " fill="#FC5920" transform="translate(571,138)"/>
<path d="M0 0 C-0.33 0.99 -0.66 1.98 -1 3 C-3.31 2.67 -5.62 2.34 -8 2 C-4.91190305 0.23537317 -3.76687864 0 0 0 Z " fill="#FB5014" transform="translate(383,980)"/>
<path d="M0 0 C0.66 0.33 1.32 0.66 2 1 C0.35 2.98 -1.3 4.96 -3 7 C-4.32 6.67 -5.64 6.34 -7 6 C-4.69 4.02 -2.38 2.04 0 0 Z " fill="#FEE2D8" transform="translate(1007,890)"/>
<path d="M0 0 C0.95930163 3.8372065 1.15195929 5.35212892 0 9 C-0.99 9.66 -1.98 10.32 -3 11 C-2.01 7.37 -1.02 3.74 0 0 Z " fill="#FDDACC" transform="translate(864,834)"/>
<path d="M0 0 C-0.33 0.99 -0.66 1.98 -1 3 C-3.64 2.67 -6.28 2.34 -9 2 C-5.86501708 0.14223235 -3.62528568 -0.20140476 0 0 Z " fill="#FA5F2A" transform="translate(190,749)"/>
<path d="M0 0 C0.33 1.32 0.66 2.64 1 4 C-0.9375 6.25 -0.9375 6.25 -3 8 C-3.66 7.67 -4.32 7.34 -5 7 C-3.35 4.69 -1.7 2.38 0 0 Z " fill="#FB5A25" transform="translate(334,639)"/>
<path d="M0 0 C0.66 0.66 1.32 1.32 2 2 C-0.62198774 4.15377564 -2.64404172 5.40072174 -6 6 C-4 4 -2 2 0 0 Z " fill="#FA541C" transform="translate(459,204)"/>
<path d="M0 0 C3.96 1.98 3.96 1.98 8 4 C4 5 4 5 1.25 3.5625 C0.5075 3.046875 -0.235 2.53125 -1 2 C-0.67 1.34 -0.34 0.68 0 0 Z " fill="#FD4E10" transform="translate(948,161)"/>
</svg>
